<svg xmlns="http://www.w3.org/2000/svg" viewBox="0 0 1440 320"><path fill="#071e26" fill-opacity="1" d="M0,320L30,298.7C60,277,120,235,180,186.7C240,139,300,85,360,101.3C420,117,480,203,540,224C600,245,660,203,720,197.3C780,192,840,224,900,240C960,256,1020,256,1080,224C1140,192,1200,128,1260,133.3C1320,139,1380,213,1410,250.7L1440,288L1440,320L1410,320C1380,320,1320,320,1260,320C1200,320,1140,320,1080,320C1020,320,960,320,900,320C840,320,780,320,720,320C660,320,600,320,540,320C480,320,420,320,360,320C300,320,240,320,180,320C120,320,60,320,30,320L0,320Z"></path></svg>