<?xml version="1.0" encoding="UTF-8"?>
<!DOCTYPE svg PUBLIC "-//W3C//DTD SVG 1.1//EN" "http://www.w3.org/Graphics/SVG/1.1/DTD/svg11.dtd">
<!-- Creator: CorelDRAW X7 -->
<svg xmlns="http://www.w3.org/2000/svg" xml:space="preserve" width="210mm" height="297mm" version="1.1" style="shape-rendering:geometricPrecision; text-rendering:geometricPrecision; image-rendering:optimizeQuality; fillRule:evenodd; clipRule:evenodd"
viewBox="0 0 21000 29700"
 xmlns:xlink="http://www.w3.org/1999/xlink">
 <defs>
  <style type="text/css">
   <![CDATA[
    .str0 {stroke:black;stroke-width:20}
    .fil0 {fill:#062633}
    .fil2 {fill:#4AB7BA}
    .fil1 {fill:white}
   ]]>
  </style>
 </defs>
 <g id="Layer_x0020_1">
  <metadata id="CorelCorpID_0Corel-Layer"/>
  <rect class="fil0 str0" x="-523" y="7019" width="22046" height="15661"/>
  <g id="_2065719658016">
   <g>
    <g id="Layer_2_1_">
     <g id="Layer_1-2">
      <path class="fil1" d="M1265 15886c-58,76 -89,169 -88,265 -11,486 744,1067 2152,1108 1219,35 2354,-457 2354,-1115 1,-88 -20,-175 -62,-253 -62,-118 -783,-1213 -783,-1213 0,0 -230,-379 -465,-339 -164,28 -259,181 -468,557 -163,296 -573,1082 -767,1441 -58,106 -263,522 -507,442 -218,-77 -230,-438 -252,-681 -11,-116 -43,-434 -50,-528 -37,-534 -107,-630 -234,-625 -185,7 -640,675 -830,941z"/>
      <path class="fil2" d="M3299 14002c0,0 584,-43 1015,160 13,5 28,-1 34,-14 3,-7 3,-15 -1,-22l-769 -1349c-25,-55 -78,-92 -139,-95 -97,0 -108,186 -108,186l-32 1134z"/>
      <path class="fil1" d="M3439 12682c0,0 -18,0 -25,94 -6,85 -110,1635 -135,2003 -3,44 -41,78 -85,75 0,0 -1,0 -1,0 -300,-22 -917,-153 -917,-425 3,-41 15,-80 37,-115l951 -1525c36,-63 102,-103 175,-107z"/>
     </g>
    </g>
   </g>
   <g>
    <g id="Layer_2" data-name="Layer 2">
     <g id="Layer_1-2_0" data-name="Layer 1">
      <path class="fil1" d="M8783 13796l-1208 2329 534 0 163 -343 1021 0 167 343 535 0 -1212 -2329zm312 1558l-618 0 309 -646 309 646z"/>
      <polygon class="fil1" points="13963,15148 12814,13796 12814,16125 13302,16125 13302,15079 13963,15860 14627,15078 14627,16125 15116,16125 15117,13796 "/>
      <polygon class="fil1" points="19795,13839 19307,13839 19307,15169 17800,13796 17800,16125 18287,16125 18289,14899 19795,16182 "/>
      <path class="fil1" d="M16456 13796l-1209 2329 534 0 162 -343 1023 0 167 344 535 0 -1212 -2330zm-309 1555l309 -646 309 647 -618 -1z"/>
      <polygon class="fil1" points="12429,13796 11277,15148 10126,13796 10127,16125 10615,16125 10615,15079 11277,15860 11940,15078 11940,16125 12429,16125 "/>
     </g>
    </g>
   </g>
  </g>
 </g>
</svg>
