<svg
            xmlns="http://www.w3.org/2000/svg"
            x="0px"
            y="0px"
            width="100"
            height="100"
            viewBox="0 0 100 100"
          >
            <path
              fill="#c7ede6"
              d="M87.215,56.71C88.35,54.555,89,52.105,89,49.5c0-6.621-4.159-12.257-10.001-14.478	C78.999,35.015,79,35.008,79,35c0-11.598-9.402-21-21-21c-9.784,0-17.981,6.701-20.313,15.757C36.211,29.272,34.638,29,33,29	c-7.692,0-14.023,5.793-14.89,13.252C12.906,43.353,9,47.969,9,53.5C9,59.851,14.149,65,20.5,65c0.177,0,0.352-0.012,0.526-0.022	C21.022,65.153,21,65.324,21,65.5C21,76.822,30.178,86,41.5,86c6.437,0,12.175-2.972,15.934-7.614C59.612,80.611,62.64,82,66,82	c4.65,0,8.674-2.65,10.666-6.518C77.718,75.817,78.837,76,80,76c6.075,0,11-4.925,11-11C91,61.689,89.53,58.727,87.215,56.71z"
            ></path>
            <path
              fill="#fdfcef"
              d="M67.5,44.5V45h-3v-0.5c0,0-4.242,0-5.5,0c-2.485,0-4.5-2.015-4.5-4.5 c0-2.333,1.782-4.229,4.055-4.455C58.533,35.364,58.5,35.187,58.5,35c0-2.485,2.015-4.5,4.5-4.5c1.438,0,2.703,0.686,3.527,1.736 C66.667,29.6,68.829,27.5,71.5,27.5c2.761,0,5,2.239,5,5c0,0.446-0.077,0.87-0.187,1.282c0.642-0.777,1.6-1.282,2.687-1.282 c1.781,0,3.234,1.335,3.455,3.055C82.636,35.533,82.813,35.5,83,35.5c2.485,0,4.5,2.015,4.5,4.5s-2.015,4.5-4.5,4.5s-9.5,0-9.5,0 H67.5z"
            ></path>
            <path
              fill="#472b29"
              d="M71.5,27c3.033,0,5.5,2.467,5.5,5.5c0,0.016,0,0.031,0,0.047C77.602,32.192,78.29,32,79,32 c1.831,0,3.411,1.261,3.858,3.005C82.905,35.002,82.952,35,83,35c2.757,0,5,2.243,5,5s-2.243,5-5,5H67.5 c-0.276,0-0.5-0.224-0.5-0.5s0.224-0.5,0.5-0.5H83c2.206,0,4-1.794,4-4s-1.794-4-4-4c-0.117,0-0.23,0.017-0.343,0.032l-0.141,0.019 c-0.021,0.003-0.041,0.004-0.062,0.004c-0.246,0-0.462-0.185-0.495-0.437C81.768,34.125,80.496,33,79,33 c-0.885,0-1.723,0.401-2.301,1.1c-0.098,0.118-0.241,0.182-0.386,0.182c-0.078,0-0.156-0.018-0.228-0.056 c-0.209-0.107-0.314-0.346-0.254-0.573C75.946,33.218,76,32.852,76,32.5c0-2.481-2.019-4.5-4.5-4.5 c-2.381,0-4.347,1.872-4.474,4.263c-0.011,0.208-0.15,0.387-0.349,0.45c-0.05,0.016-0.101,0.024-0.152,0.024 c-0.15,0-0.296-0.069-0.392-0.192C65.362,31.563,64.221,31,63,31c-2.206,0-4,1.794-4,4c0,0.117,0.017,0.23,0.032,0.343l0.019,0.141 c0.016,0.134-0.022,0.268-0.106,0.373c-0.084,0.105-0.207,0.172-0.34,0.185C56.549,36.247,55,37.949,55,40c0,2.206,1.794,4,4,4h5.5 c0.276,0,0.5,0.224,0.5,0.5S64.776,45,64.5,45H59c-2.757,0-5-2.243-5-5c0-2.397,1.689-4.413,4.003-4.877 C58.001,35.082,58,35.041,58,35c0-2.757,2.243-5,5-5c1.176,0,2.293,0.416,3.183,1.164C66.781,28.76,68.945,27,71.5,27L71.5,27z"
            ></path>
            <path
              fill="#472b29"
              d="M73,34c1.403,0,2.609,0.999,2.913,2.341C76.28,36.119,76.699,36,77.125,36 c1.202,0,2.198,0.897,2.353,2.068C79.681,38.022,79.874,38,80.063,38c1.529,0,2.811,1.2,2.918,2.732 C82.99,40.87,82.886,40.99,82.749,41c-0.006,0-0.012,0-0.018,0c-0.13,0-0.24-0.101-0.249-0.232 c-0.089-1.271-1.151-2.268-2.419-2.268c-0.229,0-0.47,0.042-0.738,0.127c-0.022,0.007-0.045,0.01-0.067,0.01 c-0.055,0-0.11-0.02-0.156-0.054C79.038,38.537,79,38.455,79,38.375c0-1.034-0.841-1.875-1.875-1.875 c-0.447,0-0.885,0.168-1.231,0.473c-0.047,0.041-0.106,0.063-0.165,0.063c-0.032,0-0.063-0.006-0.093-0.019 c-0.088-0.035-0.148-0.117-0.155-0.212C75.377,35.512,74.288,34.5,73,34.5c-0.208,0-0.425,0.034-0.682,0.107 c-0.023,0.007-0.047,0.01-0.07,0.01c-0.109,0-0.207-0.073-0.239-0.182c-0.038-0.133,0.039-0.271,0.172-0.309 C72.483,34.04,72.744,34,73,34L73,34z"
            ></path>
            <path
              fill="#472b29"
              d="M59.117,35.5c1.326,0,2.508,0.897,2.874,2.182c0.038,0.133-0.039,0.271-0.172,0.309 C61.795,37.997,61.772,38,61.75,38c-0.109,0-0.209-0.072-0.24-0.182C61.205,36.748,60.221,36,59.117,36 c-0.117,0-0.23,0.014-0.342,0.029c-0.012,0.002-0.023,0.003-0.035,0.003c-0.121,0-0.229-0.092-0.246-0.217 c-0.019-0.137,0.077-0.263,0.214-0.281C58.842,35.516,58.978,35.5,59.117,35.5L59.117,35.5z"
            ></path>
            <path
              fill="#fff"
              d="M20.5,43h-10c-0.276,0-0.5-0.224-0.5-0.5s0.224-0.5,0.5-0.5h10c0.276,0,0.5,0.224,0.5,0.5 S20.777,43,20.5,43z"
            ></path>
            <path
              fill="#fff"
              d="M23.5,43h-1c-0.276,0-0.5-0.224-0.5-0.5s0.224-0.5,0.5-0.5h1c0.276,0,0.5,0.224,0.5,0.5 S23.777,43,23.5,43z"
            ></path>
            <path
              fill="#fff"
              d="M28.491,45H19.5c-0.276,0-0.5-0.224-0.5-0.5s0.224-0.5,0.5-0.5h8.991c0.276,0,0.5,0.224,0.5,0.5 S28.767,45,28.491,45z"
            ></path>
            <path
              fill="#fff"
              d="M17.5,45h-1c-0.276,0-0.5-0.224-0.5-0.5s0.224-0.5,0.5-0.5h1c0.276,0,0.5,0.224,0.5,0.5 S17.777,45,17.5,45z"
            ></path>
            <path
              fill="#fff"
              d="M20.5,47h-2c-0.276,0-0.5-0.224-0.5-0.5s0.224-0.5,0.5-0.5h2c0.276,0,0.5,0.224,0.5,0.5 S20.776,47,20.5,47z"
            ></path>
            <path
              fill="#fff"
              d="M23.5,38c-0.177,0-0.823,0-1,0c-0.276,0-0.5,0.224-0.5,0.5s0.224,0.5,0.5,0.5c0.177,0,0.823,0,1,0 c0.276,0,0.5-0.224,0.5-0.5S23.776,38,23.5,38z"
            ></path>
            <path
              fill="#fff"
              d="M23.5,40c-0.177,0-4.823,0-5,0c-0.276,0-0.5,0.224-0.5,0.5s0.224,0.5,0.5,0.5c0.177,0,4.823,0,5,0 c0.276,0,0.5-0.224,0.5-0.5S23.776,40,23.5,40z"
            ></path>
            <path
              fill="#fff"
              d="M28.5,42c-0.177,0-2.823,0-3,0c-0.276,0-0.5,0.224-0.5,0.5s0.224,0.5,0.5,0.5c0.177,0,2.823,0,3,0 c0.276,0,0.5-0.224,0.5-0.5S28.776,42,28.5,42z"
            ></path>
            <g>
              <path
                fill="#fff"
                d="M84.5,63h-10c-0.276,0-0.5-0.224-0.5-0.5s0.224-0.5,0.5-0.5h10c0.276,0,0.5,0.224,0.5,0.5 S84.776,63,84.5,63z"
              ></path>
              <path
                fill="#fff"
                d="M88.5,63h-2c-0.276,0-0.5-0.224-0.5-0.5s0.224-0.5,0.5-0.5h2c0.276,0,0.5,0.224,0.5,0.5 S88.776,63,88.5,63z"
              ></path>
              <path
                fill="#fff"
                d="M93.5,65h-10c-0.276,0-0.5-0.224-0.5-0.5s0.224-0.5,0.5-0.5h10c0.276,0,0.5,0.224,0.5,0.5 S93.777,65,93.5,65z"
              ></path>
              <path
                fill="#fff"
                d="M81.5,65h-1c-0.276,0-0.5-0.224-0.5-0.5s0.224-0.5,0.5-0.5h1c0.276,0,0.5,0.224,0.5,0.5 S81.776,65,81.5,65z"
              ></path>
              <path
                fill="#fff"
                d="M78.47,65H76.5c-0.276,0-0.5-0.224-0.5-0.5s0.224-0.5,0.5-0.5h1.97c0.276,0,0.5,0.224,0.5,0.5 S78.746,65,78.47,65z"
              ></path>
              <path
                fill="#fff"
                d="M87.5,61h-5c-0.276,0-0.5-0.224-0.5-0.5s0.224-0.5,0.5-0.5h5c0.276,0,0.5,0.224,0.5,0.5 S87.777,61,87.5,61z"
              ></path>
              <path
                fill="#fff"
                d="M84.5,67h-2c-0.276,0-0.5-0.224-0.5-0.5s0.224-0.5,0.5-0.5h2c0.276,0,0.5,0.224,0.5,0.5 S84.776,67,84.5,67z"
              ></path>
            </g>
            <g>
              <path
                fill="#fdfcef"
                d="M30.5,67.5c0,0,1.567,0,3.5,0s3.5-1.567,3.5-3.5c0-1.781-1.335-3.234-3.055-3.455 C34.473,60.366,34.5,60.187,34.5,60c0-1.933-1.567-3.5-3.5-3.5c-1.032,0-1.95,0.455-2.59,1.165 c-0.384-1.808-1.987-3.165-3.91-3.165c-2.209,0-4,1.791-4,4c0,0.191,0.03,0.374,0.056,0.558C20.128,58.714,19.592,58.5,19,58.5 c-1.228,0-2.245,0.887-2.455,2.055C16.366,60.527,16.187,60.5,16,60.5c-1.933,0-3.5,1.567-3.5,3.5s1.567,3.5,3.5,3.5s7.5,0,7.5,0 V68h7V67.5z"
              ></path>
              <path
                fill="#472b29"
                d="M32.25,63C32.112,63,32,62.888,32,62.75c0-1.223,0.995-2.218,2.218-2.218 c0.034,0.009,0.737-0.001,1.244,0.136c0.133,0.036,0.212,0.173,0.176,0.306c-0.036,0.134-0.173,0.213-0.306,0.176 c-0.444-0.12-1.1-0.12-1.113-0.118c-0.948,0-1.719,0.771-1.719,1.718C32.5,62.888,32.388,63,32.25,63z"
              ></path>
              <circle cx="25.5" cy="67.5" r=".5" fill="#472b29"></circle>
              <path
                fill="#472b29"
                d="M34,68h-3.5c-0.276,0-0.5-0.224-0.5-0.5s0.224-0.5,0.5-0.5H34c1.654,0,3-1.346,3-3 c0-1.496-1.125-2.768-2.618-2.959c-0.134-0.018-0.255-0.088-0.336-0.196s-0.115-0.244-0.094-0.377C33.975,60.314,34,60.16,34,60 c0-1.654-1.346-3-3-3c-0.85,0-1.638,0.355-2.219,1c-0.125,0.139-0.321,0.198-0.5,0.148c-0.182-0.049-0.321-0.195-0.36-0.379 C27.58,56.165,26.141,55,24.5,55c-1.93,0-3.5,1.57-3.5,3.5c0,0.143,0.021,0.28,0.041,0.418c0.029,0.203-0.063,0.438-0.242,0.54 s-0.396,0.118-0.556-0.01C19.878,59.155,19.449,59,19,59c-0.966,0-1.792,0.691-1.963,1.644c-0.048,0.267-0.296,0.446-0.569,0.405 C16.314,61.025,16.16,61,16,61c-1.654,0-3,1.346-3,3s1.346,3,3,3h7.5c0.276,0,0.5,0.224,0.5,0.5S23.776,68,23.5,68H16 c-2.206,0-4-1.794-4-4s1.794-4,4-4c0.059,0,0.116,0.002,0.174,0.006C16.588,58.82,17.711,58,19,58c0.349,0,0.689,0.061,1.011,0.18 C20.176,55.847,22.126,54,24.5,54c1.831,0,3.466,1.127,4.153,2.774C29.333,56.276,30.155,56,31,56c2.206,0,4,1.794,4,4 c0,0.048-0.001,0.095-0.004,0.142C36.739,60.59,38,62.169,38,64C38,66.206,36.206,68,34,68z"
              ></path>
              <path
                fill="#472b29"
                d="M28.5,67c-0.159,0-0.841,0-1,0c-0.276,0-0.5,0.224-0.5,0.5s0.224,0.5,0.5,0.5c0.159,0,0.841,0,1,0 c0.276,0,0.5-0.224,0.5-0.5S28.776,67,28.5,67z"
              ></path>
            </g>
            <g>
              <path
                fill="#dd583a"
                d="M52.167,21.5l-7.341,7.989l-7.152-4.739L37.167,30l-6.341-1.598l3.13,7.652l-12.123,2.612 l10.297,7.736L22.5,50l11.196,6.054l-7.862,7.779l14.998,1.528l-3.223,6.345l14.609-10.261l17.087,10.348l0.394-5.014 l-0.959-7.943l5.391,0.348l-5.217-9.391h5.217l-2.435-2.957l3.13-1.565l-4.174-3.13l3.478-4l-6.609-2.609L71,31.011 l-10.095-0.937l2.595-6.74l-11.003,4.791L52.167,21.5L52.167,21.5z"
              ></path>
              <path
                fill="#472b29"
                d="M69.305,72.293c-0.09,0-0.18-0.024-0.259-0.072L52.238,62.042L37.896,72.116 c-0.187,0.131-0.441,0.119-0.614-0.031c-0.174-0.15-0.223-0.4-0.118-0.604l2.892-5.695l-14.272-1.454 c-0.192-0.02-0.356-0.148-0.421-0.331s-0.018-0.386,0.12-0.522l7.383-7.305L22.262,50.44c-0.172-0.093-0.274-0.279-0.261-0.475 c0.014-0.195,0.141-0.365,0.324-0.434l8.775-3.278l-9.568-7.187c-0.156-0.118-0.229-0.316-0.188-0.507 c0.042-0.191,0.191-0.34,0.383-0.381l11.541-2.487l-2.905-7.099c-0.071-0.175-0.038-0.375,0.085-0.517 c0.124-0.143,0.32-0.203,0.5-0.157l5.777,1.456l0.45-4.671c0.018-0.175,0.124-0.328,0.283-0.403 c0.158-0.076,0.345-0.063,0.491,0.034l6.797,4.504l7.052-7.675c0.137-0.148,0.347-0.201,0.538-0.132 c0.189,0.068,0.319,0.244,0.329,0.445l0.295,5.902l10.34-4.502c0.183-0.079,0.4-0.042,0.545,0.097 c0.146,0.14,0.193,0.353,0.121,0.541l-2.357,6.124l9.437,0.876c0.182,0.017,0.34,0.131,0.412,0.298 c0.073,0.167,0.05,0.36-0.062,0.504l-3.074,3.996l5.992,2.364c0.151,0.06,0.264,0.189,0.302,0.347 c0.039,0.158-0.002,0.324-0.108,0.447l-3.125,3.594l3.743,2.809c0.139,0.104,0.214,0.272,0.198,0.445 c-0.016,0.173-0.119,0.325-0.274,0.402l-2.569,1.284l1.966,2.387c0.124,0.091,0.204,0.238,0.204,0.403c0,0.276-0.224,0.5-0.5,0.5 c-0.005,0-0.012,0.001-0.02,0h-4.368l4.746,8.542c0.088,0.09,0.142,0.213,0.142,0.349c0,0.276-0.224,0.5-0.5,0.5 c-0.005,0-0.012,0-0.02,0c-0.011,0-0.021,0-0.032-0.001l-4.791-0.309l0.887,7.345l-0.392,5.113 c-0.013,0.173-0.115,0.327-0.27,0.406C69.461,72.275,69.383,72.293,69.305,72.293z M52.218,60.946c0.09,0,0.18,0.024,0.259,0.072 l16.394,9.927l0.33-4.205l-0.957-7.843c-0.019-0.148,0.03-0.295,0.133-0.404c0.103-0.108,0.248-0.157,0.396-0.155l4.478,0.289 l-4.773-8.59c-0.086-0.155-0.083-0.344,0.007-0.496c0.09-0.153,0.254-0.247,0.431-0.247h4.158l-1.762-2.139 c-0.097-0.118-0.135-0.273-0.104-0.422c0.032-0.149,0.13-0.275,0.266-0.343l2.407-1.203l-3.526-2.646 c-0.111-0.083-0.183-0.209-0.197-0.347s0.028-0.276,0.12-0.381l3.014-3.466l-5.951-2.349c-0.146-0.058-0.257-0.181-0.299-0.332 c-0.041-0.151-0.01-0.313,0.086-0.438l2.926-3.803l-9.191-0.853c-0.156-0.015-0.296-0.102-0.379-0.234 c-0.083-0.133-0.098-0.297-0.042-0.443l2.166-5.625l-9.908,4.313c-0.149,0.066-0.323,0.054-0.463-0.034 c-0.14-0.086-0.228-0.236-0.235-0.4l-0.271-5.431l-6.533,7.11c-0.167,0.182-0.438,0.213-0.645,0.079l-6.458-4.28l-0.427,4.421 c-0.015,0.145-0.091,0.277-0.21,0.361s-0.271,0.111-0.41,0.076l-5.381-1.356l2.756,6.736c0.056,0.137,0.049,0.292-0.021,0.422 c-0.069,0.131-0.192,0.225-0.337,0.256l-11.054,2.382l9.423,7.078c0.146,0.11,0.22,0.291,0.194,0.471 c-0.026,0.181-0.149,0.333-0.32,0.397l-8.601,3.213l10.229,5.531c0.139,0.076,0.234,0.212,0.257,0.369s-0.031,0.315-0.144,0.426 l-7.108,7.034l13.943,1.42c0.164,0.017,0.31,0.113,0.388,0.258c0.079,0.145,0.082,0.319,0.008,0.466l-2.314,4.557l12.968-9.108 C52.017,60.976,52.117,60.946,52.218,60.946z"
              ></path>
              <polygon
                fill="#666aad"
                points="65.514,47.793 67.214,47.793 69.892,47.793 69.353,47.14 68.555,46.171 69.678,45.609 71.037,44.93 68.592,43.096 67.732,42.451 68.438,41.64 70.766,38.963 65.552,36.906 64.317,36.418 65.126,35.366 67.203,32.667 59.405,31.943 58.089,31.821 58.564,30.588 59.916,27.075 51.97,30.535 50.644,31.112 50.572,29.668 50.407,26.371 45.722,31.471 45.144,32.099 44.433,31.628 39.344,28.256 39.046,31.35 38.935,32.508 37.806,32.224 34.176,31.309 36.26,36.402 36.711,37.506 35.545,37.758 26.537,39.699 34.793,45.9 36.254,46.997 34.542,47.636 27.322,50.334 35.833,54.937 37.02,55.578 36.061,56.527 30.253,62.273 42.484,63.519 43.935,63.667 43.274,64.967 43.025,65.458 51.588,59.444 52.108,59.079 52.66,59.394 67.842,68.08 66.61,57.882 66.465,56.686 67.667,56.764 70.603,56.953 66.34,49.279"
              ></polygon>
              <path
                fill="#472b29"
                d="M67.842,68.205c-0.021,0-0.043-0.005-0.063-0.017l-2.614-1.496c-0.06-0.034-0.08-0.11-0.046-0.17 c0.034-0.061,0.112-0.081,0.171-0.046l2.397,1.373l-1.346-11.146c-0.005-0.037,0.008-0.074,0.033-0.101 c0.025-0.027,0.058-0.047,0.099-0.039l3.909,0.251l-4.978-8.959c-0.021-0.039-0.021-0.086,0.002-0.124s0.063-0.062,0.107-0.062 h4.112l-1.169-1.418c-0.024-0.029-0.033-0.068-0.025-0.105s0.032-0.069,0.066-0.086l2.301-1.15l-3.143-2.358 c-0.027-0.021-0.046-0.052-0.049-0.087c-0.004-0.035,0.007-0.069,0.029-0.095l2.918-3.354l-6.285-2.48 c-0.036-0.014-0.064-0.045-0.074-0.083c-0.011-0.038-0.003-0.078,0.021-0.109l2.748-3.572l-0.099-0.009 c-0.068-0.006-0.119-0.067-0.112-0.136c0.006-0.068,0.069-0.125,0.136-0.113l0.324,0.03c0.045,0.004,0.085,0.033,0.103,0.075 c0.019,0.042,0.013,0.09-0.016,0.126l-2.785,3.62l6.295,2.484c0.038,0.015,0.065,0.047,0.075,0.086 c0.01,0.04,0,0.081-0.026,0.112l-2.945,3.386l3.197,2.399c0.034,0.026,0.053,0.068,0.049,0.111s-0.029,0.081-0.068,0.101 l-2.342,1.17l1.237,1.501c0.03,0.038,0.037,0.089,0.017,0.133c-0.021,0.044-0.064,0.072-0.113,0.072h-4.164l4.985,8.974 c0.022,0.04,0.021,0.089-0.004,0.127s-0.066,0.061-0.113,0.058l-3.988-0.257l1.358,11.244c0.006,0.047-0.016,0.093-0.055,0.119 C67.89,68.198,67.866,68.205,67.842,68.205z M64.359,66.212c-0.021,0-0.043-0.005-0.063-0.017l-2.604-1.49 c-0.06-0.034-0.08-0.11-0.046-0.17c0.034-0.061,0.111-0.081,0.171-0.046l2.604,1.49c0.06,0.034,0.08,0.11,0.046,0.17 C64.444,66.19,64.402,66.212,64.359,66.212z M43.024,65.583c-0.029,0-0.059-0.01-0.082-0.031c-0.043-0.038-0.056-0.1-0.029-0.151 l0.827-1.628l-13.5-1.375c-0.048-0.005-0.089-0.037-0.105-0.083c-0.016-0.045-0.004-0.096,0.03-0.13l6.646-6.576l-6.453-3.491 c-0.061-0.033-0.083-0.108-0.051-0.169c0.035-0.061,0.111-0.083,0.17-0.05l6.602,3.571c0.035,0.019,0.059,0.053,0.064,0.092 c0.005,0.039-0.008,0.079-0.036,0.106l-6.578,6.508l13.418,1.367c0.041,0.004,0.077,0.028,0.097,0.064 c0.021,0.036,0.021,0.08,0.002,0.117l-0.683,1.343l8.673-6.091c0.04-0.027,0.092-0.03,0.135-0.006l5.307,3.036 c0.06,0.034,0.08,0.11,0.046,0.17c-0.035,0.061-0.113,0.079-0.171,0.046l-5.237-2.997l-9.019,6.334 C43.074,65.576,43.05,65.583,43.024,65.583z M27.779,50.706c-0.021,0-0.041-0.005-0.06-0.015l-0.457-0.247 c-0.043-0.023-0.068-0.07-0.065-0.119c0.004-0.049,0.035-0.091,0.081-0.108l8.718-3.257l-9.534-7.161 c-0.039-0.03-0.058-0.079-0.047-0.127s0.048-0.085,0.096-0.095l7.619-1.642c0.066-0.014,0.134,0.029,0.148,0.096 c0.015,0.067-0.028,0.134-0.096,0.148l-7.352,1.584l9.498,7.134c0.036,0.027,0.055,0.073,0.049,0.118 c-0.007,0.045-0.037,0.083-0.08,0.099l-8.674,3.241l0.215,0.116c0.061,0.033,0.083,0.108,0.051,0.169 C27.866,50.682,27.823,50.706,27.779,50.706z M35.134,37.972c-0.058,0-0.109-0.04-0.122-0.099 c-0.015-0.067,0.028-0.134,0.096-0.148l1.433-0.309l-0.469-1.144c-0.025-0.064,0.005-0.137,0.069-0.163 c0.062-0.025,0.137,0.005,0.163,0.068l0.523,1.282c0.015,0.034,0.013,0.073-0.005,0.105c-0.017,0.033-0.048,0.056-0.084,0.064 l-1.578,0.34C35.151,37.971,35.143,37.972,35.134,37.972z M38.935,32.633c-0.01,0-0.021-0.001-0.03-0.004l-4.519-1.139 l0.023,0.059c0.026,0.064-0.004,0.137-0.067,0.163s-0.138-0.004-0.163-0.068l-0.118-0.288c-0.019-0.043-0.01-0.094,0.021-0.129 c0.031-0.036,0.078-0.052,0.125-0.039l4.618,1.164l0.396-4.107c0.004-0.043,0.03-0.082,0.07-0.101 c0.038-0.019,0.085-0.017,0.123,0.009l5.711,3.784l5.19-5.65c0.034-0.038,0.09-0.048,0.134-0.033 c0.048,0.017,0.08,0.061,0.083,0.111l0.228,4.561l9.106-3.965c0.044-0.02,0.099-0.009,0.137,0.024 c0.036,0.035,0.048,0.088,0.029,0.135l-1.768,4.591l5.639,0.523c0.068,0.006,0.119,0.067,0.112,0.136 c-0.006,0.068-0.063,0.126-0.136,0.113l-5.803-0.539c-0.039-0.004-0.074-0.025-0.095-0.059s-0.024-0.074-0.01-0.111l1.72-4.467 l-8.999,3.918c-0.037,0.017-0.081,0.013-0.115-0.008c-0.035-0.022-0.058-0.059-0.06-0.1l-0.222-4.443l-5.061,5.508 c-0.041,0.046-0.108,0.054-0.161,0.02l-5.626-3.728l-0.391,4.044c-0.003,0.036-0.022,0.069-0.052,0.09 C38.985,32.625,38.96,32.633,38.935,32.633z"
              ></path>
              <polygon
                fill="#3b3634"
                points="52.217,48.75 33.719,48.75 36.543,52.3 35.638,53.797 41.221,57.225 52.217,60.168"
              ></polygon>
              <path
                fill="#472b29"
                d="M52.218,60.292c-0.011,0-0.021-0.001-0.032-0.004l-10.996-2.943 c-0.012-0.003-0.022-0.008-0.033-0.014l-5.583-3.428c-0.059-0.036-0.077-0.112-0.042-0.171l0.859-1.422l-2.77-3.482 c-0.03-0.038-0.036-0.089-0.015-0.132c0.021-0.043,0.064-0.071,0.112-0.071h18.499c0.069,0,0.125,0.056,0.125,0.125v11.417 c0,0.039-0.019,0.076-0.049,0.099C52.271,60.284,52.245,60.292,52.218,60.292z M41.271,57.108l10.821,2.896V48.875H33.978 l2.663,3.348c0.032,0.041,0.036,0.098,0.01,0.142l-0.841,1.391L41.271,57.108z"
              ></path>
              <polygon
                fill="#3b3634"
                points="52.217,48.75 70.716,48.75 67.891,52.3 68.797,53.797 63.213,57.225 52.217,60.168"
              ></polygon>
              <path
                fill="#472b29"
                d="M52.218,60.292c-0.027,0-0.054-0.009-0.076-0.026c-0.03-0.023-0.049-0.06-0.049-0.099V48.75 c0-0.069,0.056-0.125,0.125-0.125h18.498c0.048,0,0.092,0.027,0.112,0.071c0.021,0.043,0.016,0.094-0.015,0.132l-2.77,3.482 l0.86,1.422c0.035,0.059,0.017,0.136-0.042,0.171l-5.584,3.428c-0.011,0.006-0.021,0.011-0.033,0.014L52.25,60.288 C52.239,60.291,52.229,60.292,52.218,60.292z M52.343,48.875v11.129l10.82-2.896l5.463-3.353l-0.842-1.39 c-0.026-0.045-0.023-0.102,0.01-0.143l2.663-3.348H52.343z"
              ></path>
              <path
                fill="#1f212b"
                d="M43.87,72.75h16.696l4.174-12.522l-7.369-1.842c-3.383-0.846-6.922-0.846-10.306,0l-7.369,1.842 L43.87,72.75z"
              ></path>
              <path
                fill="#472b29"
                d="M60.565,73H43.869c-0.107,0-0.203-0.069-0.237-0.171l-4.174-12.522 c-0.021-0.066-0.016-0.138,0.019-0.199c0.033-0.061,0.091-0.105,0.158-0.123l7.369-1.842c3.405-0.852,7.02-0.852,10.427,0 l7.369,1.842c0.067,0.017,0.125,0.062,0.158,0.123c0.034,0.061,0.04,0.133,0.019,0.199l-4.174,12.522 C60.769,72.931,60.673,73,60.565,73z M44.05,72.5h16.335l4.032-12.095l-7.107-1.776c-3.329-0.833-6.857-0.833-10.185,0 l-7.107,1.776L44.05,72.5z"
              ></path>
              <path
                fill="#d8ad8f"
                d="M44.843,59.185h-1.651c-0.682,0-1.308-0.404-1.626-1.05l-1.659-3.372 c-0.42-0.854-0.198-1.909,0.524-2.488l0,0c0.318-0.255,0.705-0.393,1.103-0.393h3.019C44.552,51.88,44.916,59.185,44.843,59.185z"
              ></path>
              <path
                fill="#472b29"
                d="M44.843,59.435h-1.65c-0.78,0-1.489-0.456-1.851-1.19l-1.659-3.372 c-0.474-0.963-0.225-2.139,0.592-2.794c0.36-0.289,0.808-0.448,1.259-0.448h3.258l0.012,0.238c0.364,7.338,0.32,7.385,0.223,7.488 l-0.074,0.078L44.843,59.435z M41.533,52.13c-0.338,0-0.674,0.12-0.946,0.338c-0.635,0.51-0.826,1.428-0.455,2.183l1.659,3.372 c0.275,0.562,0.813,0.911,1.401,0.911h1.41c-0.009-0.895-0.166-4.341-0.288-6.804H41.533z"
              ></path>
              <path
                fill="#d8ad8f"
                d="M59.592,59.185h1.651c0.682,0,1.308-0.404,1.626-1.05l1.659-3.372 c0.42-0.854,0.198-1.909-0.524-2.488l0,0c-0.318-0.255-0.705-0.393-1.103-0.393h-3.019C59.882,51.88,59.519,59.185,59.592,59.185z"
              ></path>
              <path
                fill="#472b29"
                d="M61.242,59.435h-1.758l-0.075-0.078c-0.097-0.102-0.141-0.149,0.223-7.488l0.012-0.238h3.258 c0.451,0,0.898,0.159,1.259,0.448c0.817,0.656,1.065,1.832,0.592,2.794l-1.659,3.372C62.731,58.979,62.022,59.435,61.242,59.435z M59.832,58.935h1.41c0.589,0,1.126-0.349,1.401-0.911l1.659-3.372c0.372-0.755,0.181-1.673-0.455-2.184 c-0.272-0.218-0.608-0.338-0.946-0.338H60.12C59.998,54.593,59.842,58.039,59.832,58.935z"
              ></path>
              <path
                fill="#546e7a"
                d="M72.55,72.75c-0.112-1.25-0.853-2.598-2.521-3.542c-5.304-3.001-11.494-3.762-11.494-3.762h-6.317 h-6.317c0,0-6.282,0.757-11.611,3.809c-1.633,0.935-2.352,2.432-2.421,3.495H72.55z"
              ></path>
              <path
                fill="#472b29"
                d="M72.55,73.25H31.868c-0.139,0-0.271-0.057-0.365-0.158c-0.094-0.101-0.143-0.236-0.134-0.375 c0.074-1.134,0.818-2.834,2.673-3.896c5.355-3.067,11.538-3.84,11.799-3.872l12.694-0.003c0.317,0.035,6.41,0.812,11.739,3.827 c2.219,1.255,2.689,3.002,2.773,3.932c0.013,0.14-0.034,0.279-0.129,0.382S72.69,73.25,72.55,73.25z M32.457,72.25h39.5 c-0.197-0.761-0.739-1.794-2.175-2.607c-5.151-2.915-11.247-3.693-11.309-3.701L45.9,65.946c-0.002,0.004-6.188,0.78-11.362,3.743 C33.308,70.394,32.679,71.416,32.457,72.25z"
              ></path>
              <path
                fill="#f9dac0"
                d="M56.391,35.962h-3.13h-2.087h-3.13c-3.458,0-6.261,2.803-6.261,6.261l0.671,13.38 c0.188,3.387,2.084,6.472,4.961,8.27l3.252,2.033c0.332,0.207,0.715,0.317,1.106,0.317h0.445h0.245h0.334 c0.304,0,0.602-0.085,0.86-0.247l3.365-2.103c2.877-1.798,4.791-4.882,4.979-8.27l0.652-13.38 C62.652,38.765,59.849,35.962,56.391,35.962z"
              ></path>
              <path
                fill="#472b29"
                d="M52.796,66.473h-1.023c-0.438,0-0.867-0.123-1.239-0.355l-3.252-2.033 c-2.988-1.868-4.887-5.033-5.078-8.468l-0.671-13.381c0-3.603,2.921-6.524,6.511-6.524h8.349c3.59,0,6.511,2.921,6.511,6.511 L62.25,55.616c-0.191,3.429-2.097,6.594-5.097,8.469l-3.365,2.104C53.49,66.375,53.146,66.473,52.796,66.473z M48.043,36.212 c-3.314,0-6.011,2.697-6.011,6.011l0.671,13.368c0.182,3.271,1.992,6.289,4.844,8.07l3.252,2.033 c0.292,0.183,0.629,0.279,0.974,0.279h1.023c0.257,0,0.509-0.072,0.727-0.208l3.365-2.104c2.863-1.789,4.681-4.807,4.862-8.071 l0.652-13.379c0-3.302-2.696-5.999-6.011-5.999H48.043z"
              ></path>
              <path
                fill="#3b3634"
                d="M52.36,41.527h-0.284h-10.71c0,0,1.074,13.777,1.077,13.813c0.012,0.147,0.33,0.451,0.425,0.577 c0.201,0.264,0.411,0.522,0.634,0.767c0.447,0.491,0.947,0.932,1.509,1.286c0.679,0.428,1.411,0.833,2.121,1.199 c-0.007-0.849,0.011-1.282,0.011-1.903c0,0,2.285-0.178,2.872-0.545c0.554-0.346,1.19-0.645,1.842-0.66l0.503-0.007v-0.003 l0.219,0.003c0.652,0.015,1.289,0.322,1.842,0.667c0.587,0.366,2.872,0.545,2.872,0.545c0.025,0.002-0.005,1.731,0.006,1.897 c0.894-0.351,1.804-0.929,2.575-1.5c0.851-0.629,1.5-1.477,2.12-2.324l1.077-13.813H52.36z"
              ></path>
              <path
                fill="#472b29"
                d="M47.138,59.295c-0.002,0-0.004,0-0.006,0c-0.02,0-0.039-0.004-0.058-0.014 c-0.802-0.414-1.519-0.819-2.13-1.205c-0.537-0.338-1.054-0.778-1.536-1.308c-0.204-0.224-0.414-0.478-0.641-0.775 c-0.024-0.033-0.065-0.078-0.112-0.129c-0.191-0.214-0.327-0.375-0.339-0.514c-0.007-0.098-1.065-13.675-1.076-13.813 c-0.002-0.035,0.01-0.069,0.033-0.095c0.023-0.025,0.057-0.04,0.092-0.04h21.704c0.035,0,0.068,0.015,0.092,0.04 c0.023,0.026,0.035,0.06,0.033,0.095L62.118,55.35c-0.002,0.023-0.011,0.045-0.024,0.064c-0.643,0.877-1.29,1.718-2.146,2.351 c-0.943,0.698-1.819,1.208-2.604,1.516c-0.038,0.014-0.079,0.01-0.113-0.011c-0.034-0.022-0.055-0.058-0.058-0.098 c-0.004-0.067-0.002-0.324,0.001-0.738c0.003-0.349,0.006-0.845,0.002-1.05c-0.467-0.041-2.283-0.219-2.821-0.555 c-0.688-0.43-1.254-0.636-1.779-0.648l-0.191-0.002c-0.007,0.001-0.015,0.002-0.022,0.002l-0.503,0.007 c-0.525,0.013-1.107,0.223-1.778,0.642c-0.535,0.334-2.334,0.512-2.813,0.554c-0.001,0.204-0.003,0.391-0.006,0.583 c-0.004,0.33-0.009,0.678-0.005,1.165c0.004,0.013,0.006,0.026,0.006,0.04C47.263,59.239,47.207,59.295,47.138,59.295z M52.359,55.926c0.001,0,0.001,0,0.002,0l0.219,0.003c0.573,0.014,1.179,0.232,1.907,0.687c0.554,0.346,2.792,0.524,2.814,0.526 c0.132,0.01,0.132,0.01,0.122,1.292c-0.002,0.206-0.003,0.405-0.003,0.544c0.721-0.305,1.52-0.78,2.378-1.416 c0.818-0.605,1.448-1.417,2.072-2.269l1.063-13.642H41.5c0.15,1.922,1.064,13.646,1.066,13.681 c0.009,0.065,0.195,0.274,0.275,0.363c0.052,0.058,0.097,0.108,0.125,0.145c0.222,0.292,0.427,0.54,0.627,0.758 c0.466,0.513,0.966,0.939,1.483,1.265c0.559,0.353,1.207,0.722,1.929,1.099c-0.002-0.403,0.002-0.71,0.006-1.002 c0.003-0.228,0.006-0.446,0.006-0.695c0-0.065,0.05-0.12,0.115-0.125c0.022-0.002,2.261-0.181,2.814-0.526 c0.711-0.444,1.334-0.666,1.906-0.68l0.479-0.006C52.341,55.927,52.351,55.926,52.359,55.926z"
              ></path>
              <path
                fill="#edece6"
                d="M49.407,55.522c-0.9,0.415-1.735,0.532-2.722,0.532c-1.597,0-2.997-1.144-2.798-2.849l0.219-1.795 l1.743,1.357l0.646,1.541l0.898-0.351L49.407,55.522z"
              ></path>
              <path
                fill="#472b29"
                d="M46.686,56.179c-0.916,0-1.758-0.356-2.311-0.977c-0.489-0.55-0.701-1.246-0.611-2.012l0.219-1.795 c0.006-0.045,0.034-0.083,0.076-0.1c0.041-0.018,0.089-0.012,0.125,0.017l1.742,1.357c0.017,0.013,0.03,0.03,0.038,0.05l0.6,1.429 l0.784-0.307c0.041-0.015,0.088-0.009,0.123,0.018l2.014,1.565c0.034,0.027,0.052,0.069,0.047,0.113s-0.032,0.081-0.071,0.099 C48.624,56.021,47.82,56.179,46.686,56.179z M44.204,51.645l-0.192,1.576c-0.081,0.692,0.109,1.32,0.55,1.815 c0.505,0.567,1.279,0.893,2.124,0.893c1.009,0,1.744-0.128,2.479-0.437l-1.792-1.393l-0.832,0.326 c-0.064,0.024-0.135-0.005-0.161-0.068l-0.634-1.511L44.204,51.645z"
              ></path>
              <path
                fill="#aa1737"
                d="M47.393,53.957c-0.177,0.261-0.48,0.438-0.824,0.438c-0.543,0-0.981-0.438-0.981-0.981 c0-0.25,0.094-0.47,0.261-0.647L47.393,53.957z"
              ></path>
              <path
                fill="#472b29"
                d="M46.569,54.52c-0.61,0-1.106-0.496-1.106-1.105c0-0.274,0.102-0.528,0.295-0.733 c0.044-0.046,0.117-0.052,0.167-0.013l1.545,1.189c0.053,0.041,0.064,0.115,0.027,0.169C47.286,54.336,46.939,54.52,46.569,54.52z M45.867,52.94c-0.103,0.14-0.154,0.299-0.154,0.475c0,0.472,0.384,0.855,0.856,0.855c0.248,0,0.483-0.107,0.648-0.291 L45.867,52.94z"
              ></path>
              <path
                fill="#aa1737"
                d="M48.787,62.367c1.771-1.306,3.98-1.961,6.516-2.132c0.856-0.058,1.699,0.264,2.293,0.883h0 c0.429,0.447,0.317,1.18-0.226,1.478l-3.426,1.879L48.787,62.367z"
              ></path>
              <path
                fill="#472b29"
                d="M53.943,64.599c-0.016,0-0.032-0.003-0.047-0.009l-5.157-2.106c-0.042-0.017-0.071-0.056-0.077-0.1 c-0.006-0.045,0.014-0.089,0.05-0.116c1.721-1.268,3.873-1.973,6.581-2.156c0.069-0.005,0.138-0.007,0.205-0.007 c0.824,0,1.621,0.338,2.188,0.928c0.231,0.241,0.336,0.569,0.285,0.9c-0.051,0.331-0.248,0.613-0.541,0.773l-3.426,1.878 C53.984,64.593,53.964,64.599,53.943,64.599z M49.042,62.337l4.894,1.999l3.373-1.85c0.225-0.124,0.376-0.339,0.415-0.592 c0.038-0.253-0.041-0.505-0.218-0.689c-0.563-0.585-1.375-0.9-2.195-0.845C52.746,60.533,50.693,61.18,49.042,62.337z"
              ></path>
              <path
                fill="#edece6"
                d="M55.028,55.522c0.03-0.026,0.826,0.321,0.932,0.352c0.357,0.104,0.723,0.175,1.094,0.203 c0.654,0.051,1.352-0.016,1.959-0.279c1.035-0.447,1.666-1.462,1.535-2.593l-0.219-1.795l-1.743,1.357l-0.435,1.379l-1.109-0.189 L55.028,55.522z"
              ></path>
              <path
                fill="#472b29"
                d="M57.455,56.218c-0.139,0-0.275-0.005-0.411-0.016c-0.365-0.028-0.742-0.098-1.119-0.208 c-0.04-0.012-0.174-0.066-0.329-0.129c-0.184-0.075-0.486-0.199-0.564-0.218c-0.021,0.004-0.078-0.016-0.104-0.051 c-0.041-0.054-0.03-0.131,0.023-0.173l2.013-1.564c0.027-0.021,0.063-0.031,0.098-0.024l1.003,0.17l0.402-1.274 c0.008-0.024,0.022-0.045,0.042-0.061l1.742-1.357c0.037-0.028,0.085-0.035,0.125-0.017c0.042,0.017,0.07,0.055,0.076,0.1 l0.22,1.795c0.136,1.174-0.496,2.242-1.609,2.723C58.595,56.115,58.054,56.218,57.455,56.218z M55.293,55.474 c0.094,0.036,0.222,0.087,0.397,0.159c0.145,0.059,0.268,0.11,0.305,0.121c0.36,0.105,0.72,0.171,1.068,0.199 c0.129,0.01,0.26,0.015,0.392,0.015c0.564,0,1.072-0.096,1.508-0.284c1.011-0.436,1.584-1.403,1.461-2.464l-0.193-1.575 l-1.537,1.197l-0.424,1.341c-0.019,0.06-0.078,0.099-0.14,0.085l-1.056-0.18L55.293,55.474z"
              ></path>
              <path
                fill="#aa1737"
                d="M57.041,53.957c0.177,0.261,0.48,0.438,0.824,0.438c0.543,0,0.981-0.438,0.981-0.981 c0-0.25-0.094-0.47-0.261-0.647L57.041,53.957z"
              ></path>
              <path
                fill="#472b29"
                d="M57.866,54.52c-0.371,0-0.718-0.184-0.929-0.493c-0.037-0.055-0.025-0.129,0.027-0.169l1.545-1.189 c0.051-0.039,0.123-0.034,0.167,0.013c0.193,0.205,0.295,0.458,0.295,0.733C58.972,54.024,58.476,54.52,57.866,54.52z M57.217,53.979c0.165,0.184,0.4,0.291,0.649,0.291c0.472,0,0.855-0.384,0.855-0.855c0-0.175-0.052-0.335-0.154-0.475 L57.217,53.979z"
              ></path>
              <polygon
                fill="#fdf5a9"
                points="45.978,46.467 51.517,54.398 55.672,46.53 64.739,54.183 64.739,48.75 70.716,48.75 68.513,46.026 71.75,45.25 67.821,42.187 71.125,39 65.051,36.836 68.135,32.367 58.378,31.36 60.75,26.125 51.391,30.793 50.625,25.625 44.625,33.125 37.983,34.066 39.179,37.717 33.451,42.061 39.872,46.278 37.417,51.188 42.075,49.3 44.089,50.81"
              ></polygon>
              <path
                fill="#472b29"
                d="M51.517,54.648c-0.081,0-0.158-0.04-0.205-0.107l-5.283-7.565l-1.71,3.934 c-0.03,0.07-0.092,0.123-0.166,0.142c-0.071,0.019-0.152,0.004-0.214-0.042l-1.9-1.426l-4.527,1.835 c-0.097,0.038-0.208,0.014-0.277-0.062c-0.07-0.077-0.087-0.188-0.04-0.282l2.355-4.711l-6.235-4.096 c-0.067-0.044-0.109-0.119-0.112-0.201c-0.003-0.081,0.034-0.159,0.099-0.208l5.587-4.235l-1.141-3.482 c-0.023-0.07-0.014-0.147,0.025-0.21c0.039-0.063,0.104-0.105,0.177-0.115l6.544-0.927l5.938-7.423 c0.062-0.077,0.163-0.112,0.261-0.085c0.096,0.026,0.167,0.106,0.182,0.205l0.716,4.827l9.051-4.514 c0.093-0.047,0.208-0.029,0.285,0.043c0.076,0.074,0.098,0.187,0.054,0.283l-2.229,4.918l9.412,0.972 c0.088,0.009,0.165,0.063,0.201,0.144c0.037,0.08,0.029,0.174-0.021,0.247l-2.9,4.201l5.768,2.055 c0.081,0.029,0.143,0.098,0.16,0.183c0.019,0.084-0.009,0.173-0.07,0.233l-3.098,2.986l3.702,2.886 c0.076,0.059,0.111,0.156,0.091,0.25c-0.021,0.094-0.093,0.168-0.186,0.19l-2.853,0.684l1.916,2.368 c0.064,0.045,0.106,0.12,0.106,0.205c0,0.14-0.125,0.251-0.257,0.25c-0.002,0-0.004,0-0.006,0h-5.727v5.183 c0,0.097-0.057,0.186-0.145,0.227c-0.088,0.042-0.191,0.028-0.267-0.036l-8.83-7.453l-4.011,7.594 c-0.04,0.077-0.118,0.127-0.205,0.133C51.527,54.648,51.521,54.648,51.517,54.648z M45.978,46.217c0.081,0,0.158,0.04,0.205,0.107 l5.305,7.596l3.964-7.506c0.035-0.067,0.099-0.114,0.173-0.129c0.072-0.015,0.151,0.005,0.209,0.055l8.656,7.306V48.75 c0-0.138,0.112-0.25,0.25-0.25h5.453l-1.874-2.316c-0.054-0.067-0.07-0.156-0.042-0.238c0.027-0.081,0.095-0.143,0.178-0.163 l2.732-0.655l-3.52-2.744c-0.058-0.044-0.093-0.112-0.097-0.184s0.024-0.143,0.076-0.193l3.015-2.906l-5.694-2.029 c-0.073-0.026-0.13-0.084-0.154-0.159c-0.023-0.074-0.012-0.155,0.032-0.219l2.846-4.122l-9.338-0.964 c-0.08-0.008-0.151-0.054-0.191-0.124s-0.044-0.154-0.011-0.228l2.081-4.593l-8.729,4.354c-0.072,0.036-0.156,0.035-0.227-0.002 c-0.071-0.037-0.12-0.106-0.132-0.185l-0.683-4.601l-5.642,7.052c-0.04,0.05-0.097,0.083-0.16,0.091l-6.347,0.899l1.104,3.368 c0.033,0.101-0.001,0.212-0.086,0.277l-5.447,4.129l6.126,4.023c0.105,0.07,0.143,0.208,0.086,0.321l-2.159,4.317l4.045-1.639 c0.082-0.035,0.175-0.021,0.244,0.031l1.76,1.321l1.763-4.054c0.036-0.083,0.114-0.14,0.205-0.149 C45.961,46.217,45.97,46.217,45.978,46.217z"
              ></path>
              <g>
                <polygon
                  fill="#b2b1c2"
                  points="67.87,64.141 65.893,62.604 63.696,63.098 60.565,72.75 64.739,72.75"
                ></polygon>
                <path
                  fill="#472b29"
                  d="M64.739,73h-4.174c-0.08,0-0.155-0.038-0.202-0.103c-0.047-0.064-0.061-0.148-0.036-0.224 l3.13-9.652c0.027-0.084,0.098-0.147,0.184-0.167l2.197-0.494c0.07-0.016,0.148,0,0.208,0.047l1.977,1.538 c0.086,0.066,0.119,0.181,0.082,0.283l-3.13,8.609C64.938,72.934,64.845,73,64.739,73z M60.909,72.5h3.655l3.008-8.273 l-1.74-1.353l-1.942,0.437L60.909,72.5z"
                ></path>
              </g>
              <g>
                <path
                  fill="#7c8a9f"
                  d="M72.072,62.315l-3.157-0.125l-1.046,1.951l-3.13,8.609c1.987-1.93,3.797-3.452,5.217-3.515 L72.072,62.315z"
                ></path>
                <path
                  fill="#472b29"
                  d="M64.739,73c-0.047,0-0.094-0.013-0.136-0.04c-0.098-0.063-0.139-0.186-0.1-0.295l3.13-8.609 l1.061-1.984c0.045-0.084,0.131-0.136,0.23-0.132l3.157,0.125c0.077,0.003,0.149,0.042,0.194,0.105 c0.045,0.063,0.058,0.144,0.035,0.218l-2.116,6.919c-0.031,0.101-0.122,0.172-0.229,0.176c-1.388,0.063-3.249,1.693-5.054,3.445 C64.865,72.976,64.803,73,64.739,73z M69.062,62.446l-0.972,1.813l-2.752,7.574c1.732-1.615,3.18-2.689,4.429-2.834l1.972-6.447 L69.062,62.446z"
                ></path>
              </g>
              <g>
                <path
                  fill="#bdc4d6"
                  d="M67.87,64.141l-4.174-1.043c1.362-0.929,2.726-1.85,4.174-1.826l4.174,1.043 C70.051,62.363,68.845,63.145,67.87,64.141z"
                ></path>
                <path
                  fill="#472b29"
                  d="M67.869,64.391c-0.021,0-0.041-0.002-0.061-0.007l-4.174-1.043 c-0.096-0.024-0.168-0.102-0.186-0.199s0.024-0.195,0.105-0.25c1.349-0.919,2.744-1.87,4.259-1.87 c0.021,0,0.097,0.003,0.116,0.008l4.175,1.043c0.121,0.03,0.202,0.146,0.188,0.27c-0.014,0.125-0.117,0.22-0.242,0.223 c-2.064,0.049-3.182,0.913-4.002,1.75C68,64.365,67.936,64.391,67.869,64.391z M64.299,62.991l3.493,0.874 c0.644-0.638,1.523-1.326,2.878-1.634l-2.861-0.715C66.615,61.521,65.44,62.224,64.299,62.991z"
                ></path>
              </g>
              <g>
                <circle
                  cx="65.033"
                  cy="65.446"
                  r="1.043"
                  fill="#472b29"
                ></circle>
              </g>
              <g>
                <circle
                  cx="62.826"
                  cy="71.707"
                  r="1.043"
                  fill="#472b29"
                ></circle>
              </g>
              <g>
                <circle
                  cx="63.929"
                  cy="68.576"
                  r="1.043"
                  fill="#472b29"
                ></circle>
              </g>
              <g>
                <polygon
                  fill="#b2b1c2"
                  points="36.565,64.141 38.542,62.604 40.739,63.098 43.87,72.75 39.696,72.75"
                ></polygon>
                <path
                  fill="#472b29"
                  d="M43.882,73c-0.003,0-0.008,0-0.013,0h-4.174c-0.105,0-0.199-0.066-0.235-0.165l-3.13-8.609 c-0.037-0.102-0.004-0.216,0.082-0.283l1.977-1.538c0.059-0.047,0.137-0.064,0.208-0.047l2.197,0.494 c0.086,0.02,0.156,0.083,0.184,0.167l3.107,9.583c0.029,0.041,0.047,0.091,0.047,0.146C44.132,72.888,44.02,73,43.882,73z M39.87,72.5h3.655l-2.98-9.189l-1.942-0.437l-1.74,1.353L39.87,72.5z"
                ></path>
              </g>
              <g>
                <path
                  fill="#7c8a9f"
                  d="M32.363,62.315l3.157-0.125l1.046,1.951l3.13,8.609c-1.987-1.93-3.797-3.452-5.217-3.515 L32.363,62.315z"
                ></path>
                <path
                  fill="#472b29"
                  d="M39.695,73c-0.063,0-0.126-0.024-0.174-0.071c-1.805-1.752-3.666-3.383-5.054-3.445 c-0.106-0.004-0.197-0.075-0.229-0.176l-2.116-6.919c-0.022-0.074-0.01-0.155,0.035-0.218c0.045-0.063,0.117-0.102,0.194-0.105 l3.157-0.125c0.099-0.004,0.186,0.047,0.23,0.132l1.046,1.951l3.12,8.574c0.032,0.042,0.052,0.095,0.052,0.153 c0,0.138-0.112,0.25-0.25,0.25C39.705,73,39.7,73,39.695,73z M34.668,68.999c1.249,0.145,2.696,1.219,4.428,2.834l-2.766-7.607 l-0.957-1.781l-2.677,0.106L34.668,68.999z"
                ></path>
              </g>
              <g>
                <path
                  fill="#bdc4d6"
                  d="M36.565,64.141l4.174-1.043c-1.362-0.929-2.726-1.85-4.174-1.826l-4.174,1.043 C34.384,62.363,35.59,63.145,36.565,64.141z"
                ></path>
                <path
                  fill="#472b29"
                  d="M36.565,64.391c-0.066,0-0.131-0.026-0.179-0.075c-0.82-0.838-1.938-1.701-4.001-1.75 c-0.125-0.003-0.229-0.098-0.242-0.223c-0.015-0.124,0.066-0.24,0.188-0.27l4.174-1.043c0.02-0.005,0.096-0.008,0.116-0.008 c1.517,0,2.911,0.951,4.259,1.87c0.082,0.056,0.123,0.153,0.105,0.25s-0.09,0.175-0.186,0.199l-4.174,1.043 C36.606,64.389,36.586,64.391,36.565,64.391z M33.769,62.23c1.353,0.31,2.231,0.996,2.874,1.634l3.494-0.874 c-1.142-0.766-2.316-1.469-3.516-1.469L33.769,62.23z"
                ></path>
              </g>
              <g>
                <circle
                  cx="39.402"
                  cy="65.446"
                  r="1.043"
                  fill="#472b29"
                ></circle>
              </g>
              <g>
                <circle
                  cx="41.609"
                  cy="71.707"
                  r="1.043"
                  fill="#472b29"
                ></circle>
              </g>
              <g>
                <circle
                  cx="40.505"
                  cy="68.576"
                  r="1.043"
                  fill="#472b29"
                ></circle>
              </g>
              <g>
                <path
                  fill="#edece6"
                  d="M50.852,62.913l5.539,0.183v-2.376c-4.293,0.478-6.055,1.051-7.001,1.645L50.852,62.913z"
                ></path>
                <path
                  fill="#472b29"
                  d="M56.392,63.22c-0.001,0-0.003,0-0.004,0l-5.539-0.183c-0.014,0-0.027-0.003-0.04-0.008 l-1.463-0.548c-0.045-0.017-0.075-0.057-0.08-0.104s0.018-0.093,0.058-0.119c0.792-0.497,2.309-1.134,7.055-1.663 c0.035-0.003,0.07,0.007,0.097,0.031c0.026,0.024,0.042,0.058,0.042,0.093v2.376c0,0.034-0.014,0.066-0.038,0.09 C56.455,63.208,56.424,63.22,56.392,63.22z M50.877,62.789l5.39,0.177v-2.107c-3.354,0.38-5.413,0.842-6.587,1.48L50.877,62.789z"
                ></path>
              </g>
              <g>
                <path
                  fill="#605e60"
                  d="M43.87,72.75h16.696l4.174-12.522l-3.069,0.767c-6.206,1.552-12.699,1.552-18.905,0l-3.069-0.767 L43.87,72.75z"
                ></path>
                <path
                  fill="#472b29"
                  d="M60.565,73H43.869c-0.107,0-0.203-0.069-0.237-0.171l-4.174-12.522 c-0.028-0.086-0.008-0.182,0.054-0.249c0.063-0.067,0.16-0.093,0.244-0.073l3.069,0.768c6.136,1.534,12.646,1.534,18.784,0 l3.069-0.768c0.083-0.021,0.182,0.005,0.244,0.073c0.062,0.067,0.082,0.163,0.054,0.249l-4.174,12.522 C60.769,72.931,60.673,73,60.565,73z M44.05,72.5h16.335l3.974-11.919l-2.628,0.657c-6.218,1.554-12.811,1.554-19.026,0 l-2.628-0.657L44.05,72.5z"
                ></path>
              </g>
              <g>
                <path
                  fill="#dd583a"
                  d="M47,69.598c-1.139,0-2.065-0.926-2.065-2.065s0.927-2.065,2.065-2.065s2.065,0.927,2.065,2.065 S48.139,69.598,47,69.598z M47,66.467c-0.588,0-1.065,0.478-1.065,1.065s0.478,1.065,1.065,1.065s1.065-0.478,1.065-1.065 S47.588,66.467,47,66.467z"
                ></path>
                <path
                  fill="#472b29"
                  d="M47,69.723c-1.208,0-2.19-0.982-2.19-2.19c0-0.628,0.271-1.228,0.744-1.645 c0.052-0.046,0.131-0.042,0.177,0.011c0.046,0.052,0.041,0.13-0.011,0.176c-0.42,0.37-0.66,0.901-0.66,1.457 c0,1.07,0.87,1.94,1.94,1.94s1.94-0.87,1.94-1.94s-0.87-1.94-1.94-1.94c-0.002,0-0.004,0-0.006,0 c-0.151,0-0.302,0.018-0.449,0.054c-0.067,0.018-0.135-0.025-0.15-0.092c-0.017-0.067,0.024-0.135,0.092-0.151 c0.166-0.04,0.337-0.061,0.508-0.061c0.002,0,0.004,0,0.006,0c1.208,0,2.19,0.982,2.19,2.19C49.19,68.74,48.208,69.723,47,69.723 z M47,68.723c-0.656,0-1.19-0.534-1.19-1.19s0.534-1.19,1.19-1.19c0.263,0,0.513,0.084,0.723,0.245 c0.055,0.042,0.065,0.12,0.023,0.175s-0.12,0.065-0.176,0.023c-0.165-0.126-0.362-0.193-0.57-0.193 c-0.519,0-0.94,0.422-0.94,0.94c0,0.518,0.422,0.94,0.94,0.94c0.509,0,0.93-0.413,0.939-0.921 c0.001-0.068,0.057-0.123,0.125-0.123c0.001,0,0.002,0,0.002,0c0.069,0.001,0.124,0.058,0.123,0.127 C48.178,68.199,47.644,68.723,47,68.723z"
                ></path>
              </g>
              <g>
                <path
                  fill="#dd583a"
                  d="M57.435,69.598c-1.139,0-2.065-0.926-2.065-2.065s0.927-2.065,2.065-2.065 s2.065,0.927,2.065,2.065S58.573,69.598,57.435,69.598z M57.435,66.467c-0.588,0-1.065,0.478-1.065,1.065 s0.478,1.065,1.065,1.065S58.5,68.12,58.5,67.533S58.022,66.467,57.435,66.467z"
                ></path>
                <path
                  fill="#472b29"
                  d="M57.435,69.723c-1.208,0-2.19-0.982-2.19-2.19c0-1.208,0.982-2.19,2.19-2.19 c0.182,0,0.361,0.022,0.535,0.066c0.067,0.017,0.107,0.085,0.091,0.152c-0.018,0.067-0.088,0.11-0.151,0.09 c-0.154-0.039-0.313-0.059-0.475-0.059c-1.07,0-1.94,0.871-1.94,1.94s0.87,1.94,1.94,1.94s1.94-0.87,1.94-1.94 c-0.001-0.549-0.236-1.075-0.646-1.444c-0.051-0.046-0.055-0.125-0.009-0.176c0.047-0.051,0.126-0.054,0.177-0.009 c0.462,0.416,0.728,1.009,0.729,1.629C59.625,68.74,58.643,69.723,57.435,69.723z M57.435,68.723c-0.656,0-1.19-0.534-1.19-1.19 s0.534-1.19,1.19-1.19s1.19,0.534,1.19,1.19S58.091,68.723,57.435,68.723z M57.435,66.592c-0.519,0-0.94,0.422-0.94,0.94 c0,0.518,0.422,0.94,0.94,0.94s0.94-0.422,0.94-0.94C58.375,67.014,57.953,66.592,57.435,66.592z"
                ></path>
              </g>
            </g>
            <g>
              <path
                fill="#472b29"
                d="M67.694,70.164l-1.51-1.217l-0.107,0.234l1.434,1.155C67.571,70.278,67.627,70.216,67.694,70.164z"
              ></path>
              <path
                fill="#472b29"
                d="M68.897,69.493l-2.311-1.862l-0.088,0.249l2.174,1.751C68.74,69.578,68.821,69.538,68.897,69.493z"
              ></path>
              <path
                fill="#472b29"
                d="M70.031,69.05c-0.027,0-0.056-0.009-0.078-0.028l-2.975-2.397l0.107-0.234l3.024,2.436 c0.054,0.043,0.063,0.122,0.02,0.176C70.104,69.034,70.067,69.05,70.031,69.05z"
              ></path>
              <path
                fill="#472b29"
                d="M70.495,67.498l-2.942-2.37l-0.127,0.218l2.971,2.393C70.424,67.656,70.46,67.578,70.495,67.498z"
              ></path>
              <path
                fill="#472b29"
                d="M71.023,66.283l-2.947-2.374l-0.105,0.236l2.956,2.381C70.954,66.442,70.989,66.363,71.023,66.283 z"
              ></path>
              <polygon
                fill="#472b29"
                points="71.267,65.099 69.005,63.277 69.182,63.1 71.366,64.859"
              ></polygon>
              <path
                fill="#472b29"
                d="M70.271,62.657l1.347,1.085c0.026-0.053,0.043-0.109,0.073-0.161 c0.014-0.023,0.032-0.041,0.046-0.063l-1.283-1.034L70.271,62.657z"
              ></path>
              <path
                fill="#472b29"
                d="M66.668,70.979l-0.993-0.8l-0.083,0.253l0.936,0.754C66.568,71.113,66.62,71.048,66.668,70.979z"
              ></path>
            </g>
            <g>
              <path
                fill="#472b29"
                d="M36.724,70.164l1.51-1.217l0.107,0.234l-1.434,1.155C36.847,70.278,36.791,70.216,36.724,70.164z"
              ></path>
              <path
                fill="#472b29"
                d="M35.521,69.493l2.311-1.862l0.088,0.249l-2.174,1.751C35.678,69.578,35.597,69.538,35.521,69.493z"
              ></path>
              <path
                fill="#472b29"
                d="M34.387,69.05c0.027,0,0.056-0.009,0.078-0.028l2.975-2.397l-0.107-0.234l-3.024,2.436 c-0.054,0.043-0.063,0.122-0.02,0.176C34.315,69.034,34.351,69.05,34.387,69.05z"
              ></path>
              <path
                fill="#472b29"
                d="M33.923,67.498l2.942-2.37l0.127,0.218l-2.971,2.393C33.994,67.656,33.958,67.578,33.923,67.498z"
              ></path>
              <path
                fill="#472b29"
                d="M33.395,66.283l2.947-2.374l0.105,0.236l-2.956,2.381C33.464,66.442,33.429,66.363,33.395,66.283z"
              ></path>
              <polygon
                fill="#472b29"
                points="33.151,65.099 35.413,63.277 35.236,63.1 33.052,64.859"
              ></polygon>
              <path
                fill="#472b29"
                d="M34.147,62.657l-1.347,1.085c-0.026-0.053-0.043-0.109-0.073-0.161 c-0.014-0.023-0.032-0.041-0.046-0.063l1.283-1.034L34.147,62.657z"
              ></path>
              <path
                fill="#472b29"
                d="M37.75,70.979l0.993-0.8l0.083,0.253l-0.936,0.754C37.85,71.113,37.798,71.048,37.75,70.979z"
              ></path>
            </g>
            <g>
              <path
                fill="#472b29"
                d="M56.08,46.856c-0.029,0-0.059-0.01-0.082-0.03l-1.513-1.308c-0.052-0.045-0.058-0.125-0.013-0.176 c0.045-0.053,0.125-0.057,0.177-0.013l1.513,1.308c0.052,0.045,0.058,0.125,0.013,0.176C56.15,46.841,56.115,46.856,56.08,46.856z M53.811,44.894c-0.029,0-0.059-0.01-0.082-0.03l-0.311-0.269c-0.052-0.045-0.058-0.125-0.013-0.176 c0.045-0.053,0.126-0.057,0.177-0.013l0.311,0.269c0.052,0.045,0.058,0.125,0.013,0.176C53.881,44.879,53.846,44.894,53.811,44.894 z"
              ></path>
            </g>
            <g>
              <path
                fill="#472b29"
                d="M48.75,32.833c-0.04,0-0.079-0.019-0.104-0.055c-0.039-0.057-0.023-0.135,0.033-0.174l0.645-0.438 c0.057-0.039,0.134-0.024,0.174,0.033c0.039,0.057,0.023,0.135-0.033,0.174l-0.645,0.438C48.799,32.827,48.774,32.833,48.75,32.833 z M50.221,31.833c-0.04,0-0.079-0.019-0.104-0.055c-0.039-0.057-0.023-0.135,0.033-0.174l1.654-1.125 c0.058-0.039,0.134-0.024,0.174,0.033c0.039,0.057,0.023,0.135-0.033,0.174l-1.654,1.125C50.27,31.826,50.245,31.833,50.221,31.833 z"
              ></path>
            </g>
            <g>
              <path
                fill="#472b29"
                d="M59,31.625h-3c-0.069,0-0.125-0.056-0.125-0.125s0.056-0.125,0.125-0.125h3 c0.069,0,0.125,0.056,0.125,0.125S59.069,31.625,59,31.625z"
              ></path>
            </g>
            <g>
              <path
                fill="#472b29"
                d="M65.75,46.412c-0.063,0-0.116-0.047-0.124-0.11c-0.008-0.068,0.041-0.131,0.109-0.139l0.993-0.118 c0.063-0.01,0.13,0.041,0.139,0.109c0.008,0.068-0.041,0.131-0.109,0.139l-0.993,0.118C65.76,46.411,65.755,46.412,65.75,46.412z M67.736,46.176c-0.063,0-0.116-0.047-0.124-0.11c-0.008-0.068,0.041-0.131,0.109-0.139l1.474-0.174 c0.068-0.008,0.13,0.041,0.139,0.109c0.008,0.068-0.041,0.131-0.109,0.139l-1.474,0.174C67.746,46.176,67.741,46.176,67.736,46.176 z"
              ></path>
            </g>
            <g>
              <path
                fill="#472b29"
                d="M69.375,43.583c-0.025,0-0.05-0.007-0.072-0.022l-5.875-4.125c-0.056-0.04-0.069-0.118-0.03-0.174 c0.04-0.058,0.117-0.069,0.175-0.031l5.875,4.125c0.056,0.04,0.069,0.118,0.03,0.174C69.453,43.565,69.414,43.583,69.375,43.583z"
              ></path>
            </g>
          </svg>