          <svg
            xmlns="http://www.w3.org/2000/svg"
            x="0px"
            y="0px"
            width="100"
            height="100"
            viewBox="0 0 100 100"
          >
            <path
              fill="#c7ede6"
              d="M87.215,56.71C88.35,54.555,89,52.105,89,49.5c0-6.621-4.159-12.257-10.001-14.478	C78.999,35.015,79,35.008,79,35c0-11.598-9.402-21-21-21c-9.784,0-17.981,6.701-20.313,15.757C36.211,29.272,34.638,29,33,29	c-7.692,0-14.023,5.793-14.89,13.252C12.906,43.353,9,47.969,9,53.5C9,59.851,14.149,65,20.5,65c0.177,0,0.352-0.012,0.526-0.022	C21.022,65.153,21,65.324,21,65.5C21,76.822,30.178,86,41.5,86c6.437,0,12.175-2.972,15.934-7.614C59.612,80.611,62.64,82,66,82	c4.65,0,8.674-2.65,10.666-6.518C77.718,75.817,78.837,76,80,76c6.075,0,11-4.925,11-11C91,61.689,89.53,58.727,87.215,56.71z"
            ></path>
            <path
              fill="#fff"
              d="M65.5,20h-10c-0.276,0-0.5-0.224-0.5-0.5s0.224-0.5,0.5-0.5h10c0.276,0,0.5,0.224,0.5,0.5 S65.776,20,65.5,20z"
            ></path>
            <path
              fill="#fff"
              d="M69.5,20h-2c-0.276,0-0.5-0.224-0.5-0.5s0.224-0.5,0.5-0.5h2c0.276,0,0.5,0.224,0.5,0.5 S69.776,20,69.5,20z"
            ></path>
            <path
              fill="#fff"
              d="M74.5,22h-10c-0.276,0-0.5-0.224-0.5-0.5s0.224-0.5,0.5-0.5h10c0.276,0,0.5,0.224,0.5,0.5 S74.777,22,74.5,22z"
            ></path>
            <path
              fill="#fff"
              d="M62.5,22h-1c-0.276,0-0.5-0.224-0.5-0.5s0.224-0.5,0.5-0.5h1c0.276,0,0.5,0.224,0.5,0.5 S62.776,22,62.5,22z"
            ></path>
            <path
              fill="#fff"
              d="M59.375,22H57.5c-0.276,0-0.5-0.224-0.5-0.5s0.224-0.5,0.5-0.5h1.875c0.276,0,0.5,0.224,0.5,0.5 S59.651,22,59.375,22z"
            ></path>
            <path
              fill="#fff"
              d="M68.5,18h-5c-0.276,0-0.5-0.224-0.5-0.5s0.224-0.5,0.5-0.5h5c0.276,0,0.5,0.224,0.5,0.5 S68.777,18,68.5,18z"
            ></path>
            <path
              fill="#fff"
              d="M65.5,24h-2c-0.276,0-0.5-0.224-0.5-0.5s0.224-0.5,0.5-0.5h2c0.276,0,0.5,0.224,0.5,0.5 S65.776,24,65.5,24z"
            ></path>
            <path
              fill="#fff"
              d="M36.905,82H27c-0.276,0-0.5-0.224-0.5-0.5S26.724,81,27,81h9.905c0.276,0,0.5,0.224,0.5,0.5 S37.182,82,36.905,82z"
            ></path>
            <path
              fill="#fff"
              d="M40,82h-1c-0.276,0-0.5-0.224-0.5-0.5S38.724,81,39,81h1c0.276,0,0.5,0.224,0.5,0.5S40.277,82,40,82 z"
            ></path>
            <path
              fill="#fff"
              d="M44.991,84H36c-0.276,0-0.5-0.224-0.5-0.5S35.724,83,36,83h8.991c0.276,0,0.5,0.224,0.5,0.5 S45.267,84,44.991,84z"
            ></path>
            <path
              fill="#fff"
              d="M34,84h-1c-0.276,0-0.5-0.224-0.5-0.5S32.724,83,33,83h1c0.276,0,0.5,0.224,0.5,0.5S34.277,84,34,84 z"
            ></path>
            <path
              fill="#fff"
              d="M31,84h-2c-0.276,0-0.5-0.224-0.5-0.5S28.724,83,29,83h2c0.276,0,0.5,0.224,0.5,0.5S31.277,84,31,84 z"
            ></path>
            <path
              fill="#fff"
              d="M37,86h-2c-0.276,0-0.5-0.224-0.5-0.5S34.724,85,35,85h2c0.276,0,0.5,0.224,0.5,0.5S37.276,86,37,86 z"
            ></path>
            <path
              fill="#fff"
              d="M40,77c-0.177,0-0.823,0-1,0c-0.276,0-0.5,0.224-0.5,0.5S38.724,78,39,78c0.177,0,0.823,0,1,0 c0.276,0,0.5-0.224,0.5-0.5S40.276,77,40,77z"
            ></path>
            <path
              fill="#fff"
              d="M40,79c-0.177,0-4.823,0-5,0c-0.276,0-0.5,0.224-0.5,0.5S34.724,80,35,80c0.177,0,4.823,0,5,0 c0.276,0,0.5-0.224,0.5-0.5S40.276,79,40,79z"
            ></path>
            <path
              fill="#fff"
              d="M45,81c-0.177,0-2.823,0-3,0c-0.276,0-0.5,0.224-0.5,0.5S41.724,82,42,82c0.177,0,2.823,0,3,0 c0.276,0,0.5-0.224,0.5-0.5S45.276,81,45,81z"
            ></path>
            <g>
              <path
                fill="#fdfcef"
                d="M17.221,47.5c0,0-1.567,0-3.5,0s-3.5-1.567-3.5-3.5c0-1.781,1.335-3.234,3.055-3.455 c-0.028-0.179-0.055-0.358-0.055-0.545c0-1.933,1.567-3.5,3.5-3.5c1.032,0,1.95,0.455,2.59,1.165 c0.384-1.808,1.987-3.165,3.91-3.165c2.209,0,4,1.791,4,4c0,0.191-0.03,0.374-0.056,0.558c0.428-0.344,0.965-0.558,1.556-0.558 c1.228,0,2.245,0.887,2.455,2.055c0.179-0.028,0.358-0.055,0.545-0.055c1.933,0,3.5,1.567,3.5,3.5s-1.567,3.5-3.5,3.5s-7.5,0-7.5,0 V48h-7V47.5z"
              ></path>
              <path
                fill="#472b29"
                d="M15.471,43c0.138,0,0.25-0.112,0.25-0.25c0-1.223-0.995-2.218-2.218-2.218 c-0.034,0.009-0.737-0.001-1.244,0.136c-0.133,0.036-0.212,0.173-0.176,0.306c0.036,0.134,0.173,0.213,0.306,0.176 c0.444-0.12,1.1-0.12,1.113-0.118c0.948,0,1.719,0.771,1.719,1.718C15.221,42.888,15.332,43,15.471,43z"
              ></path>
              <circle cx="22.221" cy="47.5" r=".5" fill="#472b29"></circle>
              <path
                fill="#472b29"
                d="M13.721,48h3.5c0.276,0,0.5-0.224,0.5-0.5s-0.224-0.5-0.5-0.5h-3.5c-1.654,0-3-1.346-3-3 c0-1.496,1.125-2.768,2.618-2.959c0.134-0.018,0.255-0.088,0.336-0.196s0.115-0.244,0.094-0.377 C13.745,40.315,13.72,40.16,13.72,40c0-1.654,1.346-3,3-3c0.85,0,1.638,0.355,2.219,1c0.125,0.139,0.321,0.198,0.5,0.148 c0.182-0.049,0.321-0.195,0.36-0.379C20.14,36.165,21.578,35,23.219,35c1.93,0,3.5,1.57,3.5,3.5c0,0.143-0.021,0.28-0.041,0.418 c-0.029,0.203,0.063,0.438,0.242,0.54c0.179,0.102,0.396,0.118,0.556-0.01C27.841,39.155,28.27,39,28.719,39 c0.966,0,1.792,0.691,1.963,1.644c0.048,0.267,0.296,0.446,0.569,0.405C31.404,41.025,31.559,41,31.719,41c1.654,0,3,1.346,3,3 s-1.346,3-3,3h-7.5c-0.276,0-0.5,0.224-0.5,0.5s0.224,0.5,0.5,0.5h7.5c2.206,0,4-1.794,4-4s-1.794-4-4-4 c-0.059,0-0.116,0.002-0.174,0.006C31.131,38.82,30.008,38,28.719,38c-0.349,0-0.689,0.061-1.011,0.18 C27.543,35.847,25.593,34,23.219,34c-1.831,0-3.466,1.127-4.153,2.774C18.386,36.275,17.564,36,16.719,36c-2.206,0-4,1.794-4,4 c0,0.048,0.001,0.095,0.004,0.142C10.98,40.59,9.719,42.169,9.719,44C9.721,46.206,11.515,48,13.721,48z"
              ></path>
              <path
                fill="#472b29"
                d="M19.221,47c0.159,0,0.841,0,1,0c0.276,0,0.5,0.224,0.5,0.5s-0.224,0.5-0.5,0.5c-0.159,0-0.841,0-1,0 c-0.276,0-0.5-0.224-0.5-0.5S18.945,47,19.221,47z"
              ></path>
            </g>
            <path
              fill="#ee3e54"
              fillRule="evenodd"
              d="M40.77,57.491l6.423,7.226c0.596,0.67,0.206,1.732-0.681,1.859	l-5.334,0.762c-0.296,0.043-0.594-0.035-0.833-0.213l-3.416-2.562c-0.415-0.311-0.563-0.865-0.358-1.342l2.326-5.427	C39.222,57.038,40.223,56.875,40.77,57.491z M62.617,38.467l3.2,1.6c0.442,0.22,0.686,0.703,0.605,1.19l-0.71,4.263	c-0.131,0.79-1.025,1.192-1.703,0.769l-6.005-3.754c-0.711-0.445-0.703-1.484,0.018-1.915l3.516-2.109	C61.866,38.312,62.273,38.296,62.617,38.467z M39.174,38.191c0.421,0,0.759,0.018,1.264,0.421	C41.072,39.12,64.68,55.824,69.19,59.015c0.433,0.307,0.59,0.865,0.38,1.353c-0.677,1.574-2.109,4.925-2.722,6.359	c-0.175,0.413-0.58,0.677-1.029,0.677h-3.26c-0.314,0-0.615-0.131-0.827-0.363L37.278,40.461c-0.528-0.573-0.327-1.499,0.393-1.798	C38.268,38.415,38.887,38.191,39.174,38.191z M43.239,33.079c-0.208-0.202-0.482-0.311-0.773-0.311h-9.612	c-0.593,0.297-1.124,0.64-1.124,1.826v7.53v2.544c0,0.174,0.041,0.346,0.119,0.502l0.754,1.508c0.158,0.317,0.158,0.689,0,1.005	l-0.873,1.745v1.124l1.124,1.124v1.123l-0.794,0.794c-0.211,0.211-0.329,0.497-0.329,0.794v3.564c0,0.298,0.118,0.584,0.329,0.794	l0.465,0.465c0.212,0.212,0.329,0.497,0.329,0.794v3.474c0,0.333-0.151,0.654-0.409,0.864c-0.752,0.615-0.715,0.952-0.715,1.938	v4.564c0,0.501,0.34,0.941,0.82,1.081c1.845,0.537,2.144,0.902,4.797,0.902c2.655,0,4.494,0,4.494,0c0.69,0,1.38-0.566,1.809-0.893	c0.297-0.226,0.701-0.311,1.036-0.147c0.532,0.262,1.218,1.04,2.115,1.04c0.721,0,1.87-1.124,2.485-1.124	c0.391,0,1.381,0.8,1.381,0.8c0.108,0.054,0.207,0.125,0.292,0.21l0.665,0.908c0.212,0.212,0.497,0.329,0.794,0.329h1.34	c0.261,0,0.514-0.085,0.712-0.255c0.38-0.327,1.122-0.853,1.976-0.869h5.322c0.18,0,0.354-0.041,0.514-0.125	c0.309-0.162,0.886-0.665,1.345-0.889c0.441-0.215,0.968-0.118,1.304,0.236c0.063,0.066,0.125,0.134,0.182,0.195	c0.212,0.233,0.511,0.582,0.825,0.582h2.402c0.298,0,0.584-0.118,0.794-0.329l0.314-0.463c0.297-0.297,0.729-0.406,1.13-0.278	c0.365,0.116,1.52,0.822,2.47,1.041c0.704,0.163,1.376-0.372,1.376-1.095V57.291c0-0.62-0.503-1.124-1.124-1.124h-1.124l0.794-0.794	c0.212-0.212,0.329-0.497,0.329-0.794v-3.764c0-0.174-0.041-0.346-0.119-0.502l-0.642-1.285c-0.215-0.433-0.131-0.955,0.21-1.296	l0.552-0.552v-1.124l0.794-0.794c0.211-0.211,0.329-0.497,0.329-0.794v-3.891c0-0.092-0.011-0.183-0.034-0.273l-0.936-3.742	c-0.096-0.382,0.017-0.788,0.296-1.066l0.674-0.674v-1.124l-0.86-0.86c-0.171-0.171-0.392-0.282-0.631-0.317L69.385,32l-0.89,0.637	l-0.476-0.697c-0.21-0.307-0.556-0.49-0.928-0.49h-6.148c-0.693,0-1.122,0.446-1.122,1.116c0,0.163-0.001,1.131-1.125,1.131	c-1.124,0-1.124-1.124-1.124-1.124s0-1.124-1.291-1.124h-7.078c-0.378,0-0.729,0.186-0.936,0.502	c-0.433,0.662-1.206,1.745-1.618,1.745c-0.593,0-0.739,0-1.436,0C44.244,33.697,43.581,33.412,43.239,33.079z"
              clipRule="evenodd"
            ></path>
            <path
              fill="#472b29"
              d="M53.759,74.65h-1.34c-0.485,0-0.943-0.189-1.289-0.533c-0.025-0.025-0.049-0.053-0.07-0.083	l-0.626-0.854c-0.024-0.02-0.051-0.037-0.08-0.052c-0.045-0.022-0.087-0.05-0.126-0.081c-0.374-0.302-0.853-0.611-1.005-0.65	c-0.064,0.024-0.474,0.278-0.719,0.43c-0.555,0.344-1.13,0.699-1.703,0.699c-0.852,0-1.514-0.479-1.997-0.828	c-0.155-0.112-0.296-0.22-0.427-0.284c-0.07-0.034-0.201-0.002-0.303,0.077l-0.086,0.065c-0.504,0.387-1.265,0.971-2.146,0.971	h-4.494c-2.157,0-2.868-0.237-3.943-0.598c-0.301-0.101-0.636-0.212-1.05-0.333c-0.78-0.229-1.325-0.949-1.325-1.753v-4.692	c-0.002-0.936-0.003-1.555,0.972-2.352c0.096-0.078,0.152-0.198,0.152-0.322v-3.474c0-0.112-0.044-0.219-0.124-0.299l-0.466-0.466	c-0.339-0.338-0.534-0.808-0.534-1.289v-3.563c0-0.479,0.194-0.948,0.533-1.289l0.591-0.59v-0.543l-0.919-0.919	c-0.131-0.132-0.205-0.31-0.205-0.495v-1.123c0-0.108,0.025-0.216,0.074-0.313l0.873-1.746c0.06-0.118,0.06-0.259,0-0.377	l-0.754-1.51c-0.126-0.25-0.193-0.532-0.193-0.814V34.594c0-1.491,0.727-2.06,1.511-2.452c0.098-0.049,0.205-0.074,0.313-0.074	h9.612c0.476,0,0.924,0.182,1.261,0.51c0.211,0.203,0.711,0.42,1.485,0.42h1.333c0.155-0.114,0.538-0.515,1.136-1.429	c0.337-0.513,0.905-0.818,1.521-0.818h7.078c1.461,0,1.991,1.091,1.991,1.824c0.015,0.423,0.301,0.423,0.423,0.423	c0.257,0,0.425-0.03,0.425-0.431c0-1.069,0.75-1.816,1.823-1.816h6.147c0.604,0,1.167,0.298,1.507,0.796l0.072,0.105l0.309-0.221	c0.147-0.105,0.327-0.15,0.509-0.123l3.548,0.521c0.384,0.055,0.749,0.237,1.025,0.514l0.86,0.86	c0.131,0.132,0.205,0.31,0.205,0.495v1.124c0,0.186-0.074,0.364-0.206,0.495l-0.675,0.674c-0.104,0.104-0.146,0.258-0.11,0.401	l0.936,3.742c0.037,0.146,0.056,0.295,0.056,0.442v3.892c0,0.479-0.195,0.949-0.534,1.289l-0.589,0.59v0.833	c0,0.186-0.074,0.363-0.205,0.495l-0.552,0.552c-0.129,0.129-0.161,0.326-0.079,0.49L73.808,50c0.126,0.253,0.193,0.535,0.193,0.815	v3.764c0,0.338-0.091,0.661-0.262,0.942c0.795,0.196,1.386,0.915,1.386,1.77v14.412c0,0.56-0.251,1.08-0.689,1.428	c-0.438,0.349-1.003,0.477-1.545,0.349c-0.709-0.163-1.468-0.542-2.022-0.818c-0.221-0.11-0.396-0.204-0.5-0.237	c-0.135-0.043-0.276-0.016-0.387,0.071l-0.267,0.395c-0.024,0.036-0.053,0.069-0.083,0.1c-0.338,0.342-0.809,0.537-1.291,0.537	h-2.402c-0.608,0-1.031-0.468-1.312-0.777l-0.201-0.217c-0.126-0.132-0.327-0.17-0.491-0.091c-0.205,0.101-0.48,0.301-0.723,0.478	c-0.234,0.17-0.448,0.321-0.604,0.403c-0.259,0.135-0.541,0.204-0.839,0.204h-5.322c-0.652,0.013-1.28,0.493-1.52,0.699	C54.609,74.499,54.194,74.65,53.759,74.65z M52.149,73.153c0.076,0.063,0.171,0.097,0.27,0.097h1.34c0.101,0,0.191-0.03,0.255-0.085	c0.44-0.379,1.34-1.018,2.42-1.039h5.336c0.07,0,0.132-0.015,0.188-0.044c0.11-0.058,0.262-0.173,0.43-0.295	c0.289-0.21,0.616-0.448,0.933-0.604c0.719-0.352,1.571-0.197,2.119,0.384l0.126,0.135c0.002,0.002,0.099,0.105,0.101,0.108	c0.085,0.094,0.263,0.29,0.346,0.327l2.329-0.012c0.095,0,0.188-0.032,0.26-0.089l0.268-0.396c0.025-0.037,0.054-0.071,0.085-0.103	c0.483-0.484,1.186-0.655,1.839-0.449c0.142,0.045,0.393,0.164,0.701,0.318c0.492,0.245,1.165,0.581,1.713,0.707	c0.173,0.044,0.298-0.032,0.358-0.08c0.06-0.048,0.16-0.154,0.16-0.332V57.291c0-0.233-0.19-0.423-0.424-0.423h-1.124	c-0.283,0-0.538-0.171-0.646-0.433s-0.049-0.563,0.151-0.763l0.795-0.795c0.08-0.08,0.124-0.186,0.124-0.299v-3.764	c0-0.064-0.016-0.13-0.045-0.188l-0.643-1.285c-0.351-0.706-0.213-1.551,0.342-2.105l0.347-0.347v-0.833	c0-0.186,0.074-0.363,0.205-0.495l0.794-0.795c0.079-0.079,0.124-0.188,0.124-0.299v-3.892c0-0.033-0.004-0.067-0.013-0.103	l-0.936-3.742c-0.155-0.618,0.028-1.281,0.479-1.731l0.47-0.469v-0.544l-0.655-0.655c-0.063-0.063-0.147-0.105-0.235-0.118	l-3.271-0.48l-0.661,0.474c-0.152,0.11-0.342,0.152-0.529,0.12c-0.186-0.033-0.35-0.14-0.456-0.295l-0.476-0.697	c-0.079-0.115-0.21-0.185-0.351-0.185h-6.147c-0.297,0-0.423,0.124-0.423,0.416c0,1.112-0.717,1.831-1.825,1.831	c-1.338,0-1.823-1.091-1.823-1.823c-0.021-0.424-0.449-0.424-0.591-0.424h-7.078c-0.143,0-0.273,0.069-0.351,0.186	c-1.186,1.812-1.76,2.062-2.203,2.062h-1.437c-1.044,0-1.918-0.29-2.461-0.815c0-0.001-0.001-0.001-0.002-0.002	c-0.075-0.073-0.173-0.112-0.283-0.112h-9.444c-0.361,0.19-0.592,0.389-0.592,1.126v10.073c0,0.064,0.016,0.13,0.044,0.188	l0.755,1.511c0.256,0.511,0.256,1.12,0,1.63l-0.799,1.598v0.668l0.919,0.919c0.131,0.132,0.205,0.31,0.205,0.495v1.123	c0,0.186-0.074,0.364-0.205,0.495l-0.795,0.794c-0.078,0.079-0.124,0.188-0.124,0.3v3.563c0,0.111,0.045,0.22,0.123,0.298	l0.467,0.467c0.345,0.345,0.534,0.803,0.534,1.289v3.474c0,0.541-0.25,1.066-0.667,1.407c-0.459,0.375-0.459,0.425-0.457,1.265	v4.694c0,0.187,0.13,0.354,0.316,0.409c0.435,0.127,0.786,0.244,1.102,0.35c1.013,0.338,1.57,0.524,3.5,0.524h4.494	c0.406,0,0.962-0.427,1.294-0.682l0.091-0.068c0.533-0.407,1.209-0.491,1.767-0.22c0.193,0.095,0.403,0.242,0.631,0.406	c0.383,0.276,0.778,0.563,1.177,0.563c0.177-0.001,0.69-0.318,0.967-0.489c0.526-0.326,1.023-0.634,1.519-0.634	c0.414,0,1.009,0.308,1.768,0.913c0.147,0.082,0.281,0.184,0.4,0.302c0.025,0.025,0.049,0.053,0.069,0.082L52.149,73.153z"
            ></path>
            <path
              fill="#472b29"
              d="M34.952,55.269c-0.053,0-0.105-0.017-0.15-0.05c-0.11-0.083-0.133-0.24-0.05-0.351	c0.095-0.126,0.208-0.236,0.321-0.346c0.075-0.073,0.151-0.146,0.219-0.225c0.543-0.638,0.444-1.892,0.365-2.898	c-0.028-0.353-0.054-0.684-0.054-0.967c0-0.05,0.015-0.099,0.043-0.141c0.006-0.009,0.679-1.053,0.216-2.906	c-0.249-0.996-0.566-1.585-0.776-1.974c-0.224-0.415-0.385-0.714-0.205-1.073c0.063-0.124,0.215-0.172,0.335-0.112	c0.124,0.062,0.174,0.212,0.112,0.335c-0.058,0.115-0.011,0.226,0.198,0.613c0.222,0.411,0.557,1.033,0.82,2.09	c0.456,1.822-0.079,2.949-0.242,3.237c0.003,0.256,0.026,0.549,0.051,0.858c0.087,1.099,0.194,2.466-0.482,3.262	c-0.079,0.092-0.165,0.176-0.252,0.26c-0.095,0.092-0.19,0.183-0.269,0.287C35.103,55.234,35.027,55.269,34.952,55.269z"
            ></path>
            <path
              fill="#472b29"
              d="M70.301,51.51c-0.092,0-0.18-0.051-0.224-0.139l-0.448-0.897c-0.615-1.152-0.613-2.533,0.009-3.88	l0.091-0.193c0.144-0.304,0.28-0.591,0.323-0.894c0.012-0.086,0.017-0.172,0.021-0.259c0.009-0.151,0.019-0.302,0.054-0.449	c0.089-0.367,0.365-0.587,0.608-0.781c0.187-0.148,0.362-0.288,0.436-0.474c0.075-0.189,0.061-0.534,0.049-0.812	c-0.005-0.12-0.009-0.233-0.008-0.332c0.015-1.015-0.064-1.832-0.248-2.573c-0.074-0.298-0.161-0.595-0.247-0.891	c-0.229-0.788-0.466-1.603-0.479-2.46c-0.001-0.099,0.002-0.21,0.006-0.325c0.007-0.2,0.021-0.612-0.046-0.707	c-0.006,0.01-0.088,0.026-0.263,0.153c-0.204,0.146-0.396,0.311-0.587,0.475c-0.286,0.244-0.581,0.497-0.921,0.697	c-0.524,0.31-0.996,0.186-1.331-0.343c-0.087-0.136-0.174-0.297-0.267-0.467c-0.295-0.54-0.662-1.213-1.17-1.312	c-0.199-0.039-0.41-0.028-0.633-0.017l-0.086,0.004c-0.486,0.021-0.979,0.015-1.466-0.021c-0.404-0.029-0.697-0.053-0.953,0.159	c-0.149,0.122-0.274,0.282-0.405,0.451c-0.053,0.068-0.106,0.137-0.161,0.202c-0.089,0.107-0.247,0.122-0.352,0.033	c-0.106-0.088-0.121-0.246-0.033-0.352c0.052-0.063,0.102-0.127,0.151-0.19c0.143-0.184,0.289-0.373,0.481-0.531	c0.414-0.341,0.859-0.306,1.283-0.272c0.49,0.035,0.964,0.042,1.432,0.021l0.084-0.004c0.243-0.012,0.495-0.024,0.753,0.026	c0.738,0.143,1.168,0.93,1.513,1.563c0.087,0.159,0.169,0.311,0.25,0.438c0.194,0.305,0.365,0.352,0.655,0.18	c0.302-0.178,0.567-0.405,0.85-0.646c0.202-0.174,0.404-0.347,0.62-0.501c0.119-0.086,0.486-0.347,0.797-0.187	c0.337,0.18,0.32,0.68,0.304,1.164c-0.004,0.106-0.007,0.209-0.006,0.3c0.012,0.791,0.229,1.537,0.459,2.328	c0.088,0.303,0.176,0.604,0.251,0.909c0.195,0.785,0.279,1.644,0.264,2.702c-0.001,0.089,0.003,0.193,0.008,0.304	c0.014,0.341,0.03,0.728-0.084,1.016c-0.122,0.31-0.37,0.507-0.589,0.682c-0.207,0.164-0.385,0.307-0.434,0.507	c-0.028,0.118-0.034,0.239-0.041,0.361c-0.006,0.1-0.012,0.2-0.026,0.3c-0.053,0.377-0.212,0.713-0.366,1.037l-0.088,0.188	c-0.556,1.202-0.562,2.425-0.019,3.441l0.451,0.904c0.062,0.123,0.012,0.273-0.112,0.335C70.377,51.501,70.339,51.51,70.301,51.51z"
            ></path>
            <path
              fill="#472b29"
              d="M40.786,67.737c-0.348,0-0.686-0.112-0.97-0.325L36.4,64.851c-0.601-0.452-0.813-1.249-0.519-1.939	l2.326-5.427c0.221-0.513,0.681-0.873,1.232-0.962c0.545-0.093,1.103,0.105,1.475,0.524l2.186,2.459	c0.184,0.206,0.164,0.522-0.042,0.706c-0.206,0.182-0.523,0.165-0.706-0.042l-2.186-2.459c-0.145-0.163-0.351-0.237-0.566-0.201	c-0.215,0.034-0.388,0.169-0.473,0.369l-2.326,5.427c-0.114,0.265-0.032,0.571,0.199,0.745l3.415,2.561	c0.134,0.102,0.301,0.145,0.461,0.119l5.335-0.763c0.231-0.033,0.417-0.184,0.498-0.402c0.08-0.22,0.035-0.454-0.12-0.629	l-2.214-2.49c-0.184-0.206-0.165-0.522,0.042-0.706c0.205-0.183,0.521-0.166,0.706,0.042l2.214,2.49	c0.397,0.447,0.517,1.074,0.311,1.637s-0.703,0.965-1.296,1.049l-5.333,0.763C40.942,67.731,40.863,67.737,40.786,67.737z"
            ></path>
            <path
              fill="#472b29"
              d="M64.665,47.236c-0.3,0-0.598-0.083-0.859-0.247l-6.005-3.754c-0.483-0.303-0.769-0.823-0.763-1.393	c0.005-0.569,0.3-1.083,0.788-1.376l3.517-2.108c0.473-0.286,1.057-0.313,1.559-0.062l3.201,1.6c0.64,0.32,0.991,1.011,0.875,1.719	l-0.157,0.944c-0.045,0.273-0.309,0.457-0.575,0.411c-0.272-0.045-0.457-0.303-0.411-0.575l0.157-0.943	c0.045-0.272-0.09-0.538-0.336-0.661l-3.2-1.6c-0.19-0.096-0.415-0.087-0.597,0.023l-3.519,2.109	c-0.189,0.114-0.3,0.307-0.302,0.528c-0.003,0.222,0.104,0.417,0.293,0.535l6.004,3.754c0.181,0.113,0.395,0.125,0.587,0.039	c0.193-0.088,0.324-0.257,0.358-0.466l0.179-1.069c0.046-0.273,0.311-0.458,0.575-0.411c0.272,0.046,0.457,0.303,0.411,0.575	l-0.179,1.069c-0.089,0.535-0.438,0.989-0.933,1.213C65.121,47.189,64.892,47.236,64.665,47.236z"
            ></path>
            <path
              fill="#472b29"
              d="M65.433,68.078h-3.26c-0.453,0-0.889-0.191-1.195-0.524c-0.187-0.204-0.174-0.52,0.029-0.707	c0.205-0.186,0.52-0.172,0.707,0.029c0.118,0.129,0.285,0.202,0.459,0.202h3.26c0.249,0,0.473-0.146,0.569-0.372l0.267-0.625	c0.694-1.624,1.864-4.359,2.456-5.736c0.116-0.271,0.03-0.577-0.21-0.747l-1.416-1.003c-11.489-8.131-26.825-18.99-27.359-19.417	c-0.391-0.312-0.602-0.312-0.951-0.312c-0.027,0-0.3,0.012-1.31,0.434c-0.19,0.08-0.325,0.24-0.369,0.441s0.011,0.404,0.15,0.556	l12.913,13.989c0.188,0.203,0.175,0.519-0.028,0.706c-0.202,0.188-0.518,0.176-0.706-0.028L36.525,40.975	c-0.359-0.389-0.506-0.931-0.393-1.448c0.113-0.517,0.473-0.946,0.962-1.149c1.095-0.458,1.491-0.511,1.693-0.511	c0.498,0,0.96,0.04,1.575,0.53c0.381,0.305,9.57,6.825,27.313,19.383l1.417,1.002c0.63,0.445,0.856,1.251,0.55,1.959	c-0.592,1.376-1.76,4.11-2.454,5.734l-0.267,0.623C66.668,67.693,66.084,68.078,65.433,68.078z"
            ></path>
            <path
              fill="#472b29"
              d="M53.497,59.125c-0.135,0-0.269-0.054-0.367-0.161l-1.153-1.25c-0.188-0.203-0.175-0.52,0.028-0.706	c0.202-0.187,0.52-0.176,0.706,0.028l1.153,1.25c0.188,0.203,0.175,0.52-0.028,0.706C53.74,59.081,53.618,59.125,53.497,59.125z"
            ></path>
            <path
              fill="#472b29"
              d="M58.344,64.375c-0.135,0-0.269-0.054-0.367-0.161l-3.25-3.521c-0.188-0.202-0.175-0.519,0.028-0.706	c0.203-0.187,0.52-0.176,0.706,0.028l3.25,3.521c0.188,0.202,0.175,0.519-0.028,0.706C58.587,64.331,58.465,64.375,58.344,64.375z"
            ></path>
            <g>
              <path
                fill="#fdfcef"
                d="M76.377,76.5V77h3v-0.5c0,0,4.242,0,5.5,0c2.485,0,4.5-2.015,4.5-4.5 c0-2.333-1.782-4.229-4.055-4.455c0.022-0.181,0.055-0.358,0.055-0.545c0-2.485-2.015-4.5-4.5-4.5 c-1.438,0-2.703,0.686-3.527,1.736C77.21,61.6,75.048,59.5,72.377,59.5c-2.761,0-5,2.239-5,5c0,0.446,0.077,0.87,0.187,1.282 c-0.642-0.777-1.6-1.282-2.687-1.282c-1.781,0-3.234,1.335-3.455,3.055c-0.181-0.022-0.358-0.055-0.545-0.055 c-2.485,0-4.5,2.015-4.5,4.5s2.015,4.5,4.5,4.5s9.5,0,9.5,0H76.377z"
              ></path>
              <path
                fill="#472b29"
                d="M72.377,59c-3.033,0-5.5,2.467-5.5,5.5c0,0.016,0,0.031,0,0.047c-0.602-0.354-1.29-0.547-2-0.547 c-1.831,0-3.411,1.261-3.858,3.005C60.972,67.002,60.925,67,60.877,67c-2.757,0-5,2.243-5,5s2.243,5,5,5h15.5 c0.276,0,0.5-0.224,0.5-0.5c0-0.276-0.224-0.5-0.5-0.5h-15.5c-2.206,0-4-1.794-4-4s1.794-4,4-4c0.117,0,0.23,0.017,0.343,0.032 l0.141,0.019c0.021,0.003,0.041,0.004,0.062,0.004c0.246,0,0.462-0.185,0.495-0.437C62.109,66.125,63.381,65,64.877,65 c0.885,0,1.723,0.401,2.301,1.1c0.098,0.118,0.241,0.182,0.386,0.182c0.078,0,0.156-0.018,0.228-0.056 c0.209-0.107,0.314-0.346,0.254-0.573c-0.116-0.436-0.17-0.802-0.17-1.153c0-2.481,2.019-4.5,4.5-4.5 c2.381,0,4.347,1.872,4.474,4.263c0.011,0.208,0.15,0.387,0.349,0.45c0.05,0.016,0.101,0.024,0.152,0.024 c0.15,0,0.296-0.069,0.392-0.192c0.771-0.981,1.913-1.544,3.133-1.544c2.206,0,4,1.794,4,4c0,0.117-0.017,0.23-0.032,0.343 l-0.019,0.141c-0.016,0.134,0.022,0.268,0.106,0.373s0.207,0.172,0.34,0.185c2.055,0.205,3.604,1.906,3.604,3.958 c0,2.206-1.794,4-4,4h-5.5c-0.276,0-0.5,0.224-0.5,0.5s0.224,0.5,0.5,0.5h5.5c2.757,0,5-2.243,5-5c0-2.397-1.689-4.413-4.003-4.877 c0.002-0.041,0.003-0.082,0.003-0.123c0-2.757-2.243-5-5-5c-1.176,0-2.293,0.416-3.183,1.164C77.096,60.76,74.932,59,72.377,59 L72.377,59z"
              ></path>
              <path
                fill="#472b29"
                d="M70.877,66c-1.403,0-2.609,0.999-2.913,2.341C67.597,68.119,67.178,68,66.752,68 c-1.202,0-2.198,0.897-2.353,2.068C64.196,70.023,64.003,70,63.814,70c-1.529,0-2.811,1.2-2.918,2.732 c-0.009,0.138,0.094,0.257,0.232,0.267c0.006,0,0.012,0,0.018,0c0.13,0,0.24-0.101,0.249-0.232 c0.089-1.271,1.151-2.268,2.419-2.268c0.229,0,0.47,0.042,0.738,0.127c0.022,0.007,0.045,0.01,0.067,0.01 c0.055,0,0.11-0.02,0.156-0.054c0.064-0.047,0.102-0.129,0.102-0.209c0-1.034,0.841-1.875,1.875-1.875 c0.447,0,0.885,0.168,1.231,0.473c0.047,0.041,0.106,0.063,0.165,0.063c0.032,0,0.063-0.006,0.093-0.019 c0.088-0.035,0.148-0.117,0.155-0.212c0.102-1.292,1.191-2.305,2.479-2.305c0.208,0,0.425,0.034,0.682,0.107 c0.023,0.007,0.047,0.01,0.07,0.01c0.109,0,0.207-0.073,0.239-0.182c0.038-0.133-0.039-0.271-0.172-0.309 C71.394,66.04,71.133,66,70.877,66L70.877,66z"
              ></path>
              <path
                fill="#472b29"
                d="M84.76,67.5c-1.326,0-2.508,0.897-2.874,2.182c-0.038,0.133,0.039,0.271,0.172,0.309 c0.023,0.007,0.046,0.01,0.068,0.01c0.109,0,0.209-0.072,0.24-0.182c0.305-1.071,1.289-1.818,2.393-1.818 c0.117,0,0.23,0.014,0.342,0.029c0.012,0.002,0.023,0.003,0.035,0.003c0.121,0,0.229-0.092,0.246-0.217 c0.019-0.137-0.077-0.263-0.214-0.281C85.035,67.516,84.9,67.5,84.76,67.5L84.76,67.5z"
              ></path>
            </g>
          </svg>