<svg xmlns="http://www.w3.org/2000/svg" x="0px" y="0px" width="100" height="100" viewBox="0 0 100 100">
<path fill="#c7ede6" d="M87.215,56.71C88.35,54.555,89,52.105,89,49.5c0-6.621-4.159-12.257-10.001-14.478 C78.999,35.015,79,35.008,79,35c0-11.598-9.402-21-21-21c-9.784,0-17.981,6.701-20.313,15.757C36.211,29.272,34.638,29,33,29 c-7.692,0-14.023,5.793-14.89,13.252C12.906,43.353,9,47.969,9,53.5C9,59.851,14.149,65,20.5,65c0.177,0,0.352-0.012,0.526-0.022 C21.022,65.153,21,65.324,21,65.5C21,76.822,30.178,86,41.5,86c6.437,0,12.175-2.972,15.934-7.614C59.612,80.611,62.64,82,66,82 c4.65,0,8.674-2.65,10.666-6.518C77.718,75.817,78.837,76,80,76c6.075,0,11-4.925,11-11C91,61.689,89.53,58.727,87.215,56.71z"></path><path fill="#fff" d="M36.405,81H26.5c-0.276,0-0.5-0.224-0.5-0.5s0.224-0.5,0.5-0.5h9.905c0.276,0,0.5,0.224,0.5,0.5 S36.682,81,36.405,81z M39.5,81h-1c-0.276,0-0.5-0.224-0.5-0.5s0.224-0.5,0.5-0.5h1c0.276,0,0.5,0.224,0.5,0.5S39.777,81,39.5,81z M44.491,83H35.5c-0.276,0-0.5-0.224-0.5-0.5s0.224-0.5,0.5-0.5h8.991c0.276,0,0.5,0.224,0.5,0.5S44.767,83,44.491,83z M33.5,83h-1 c-0.276,0-0.5-0.224-0.5-0.5s0.224-0.5,0.5-0.5h1c0.276,0,0.5,0.224,0.5,0.5S33.777,83,33.5,83z M30.5,83h-2 c-0.276,0-0.5-0.224-0.5-0.5s0.224-0.5,0.5-0.5h2c0.276,0,0.5,0.224,0.5,0.5S30.777,83,30.5,83z M36.5,85h-2 c-0.276,0-0.5-0.224-0.5-0.5s0.224-0.5,0.5-0.5h2c0.276,0,0.5,0.224,0.5,0.5S36.776,85,36.5,85z M39.5,76c-0.177,0-0.823,0-1,0 c-0.276,0-0.5,0.224-0.5,0.5s0.224,0.5,0.5,0.5c0.177,0,0.823,0,1,0c0.276,0,0.5-0.224,0.5-0.5S39.776,76,39.5,76z M39.5,78 c-0.177,0-4.823,0-5,0c-0.276,0-0.5,0.224-0.5,0.5s0.224,0.5,0.5,0.5c0.177,0,4.823,0,5,0c0.276,0,0.5-0.224,0.5-0.5 S39.776,78,39.5,78z M44.5,80c-0.177,0-2.823,0-3,0c-0.276,0-0.5,0.224-0.5,0.5s0.224,0.5,0.5,0.5c0.177,0,2.823,0,3,0 c0.276,0,0.5-0.224,0.5-0.5S44.776,80,44.5,80z"></path><path fill="#fff" d="M67.5,23h-10c-0.276,0-0.5-0.224-0.5-0.5s0.224-0.5,0.5-0.5h10c0.276,0,0.5,0.224,0.5,0.5 S67.776,23,67.5,23z M71.5,23h-2c-0.276,0-0.5-0.224-0.5-0.5s0.224-0.5,0.5-0.5h2c0.276,0,0.5,0.224,0.5,0.5S71.776,23,71.5,23z M76.5,25h-10c-0.276,0-0.5-0.224-0.5-0.5s0.224-0.5,0.5-0.5h10c0.276,0,0.5,0.224,0.5,0.5S76.777,25,76.5,25z M64.5,25h-1 c-0.276,0-0.5-0.224-0.5-0.5s0.224-0.5,0.5-0.5h1c0.276,0,0.5,0.224,0.5,0.5S64.776,25,64.5,25z M61.375,25H59.5 c-0.276,0-0.5-0.224-0.5-0.5s0.224-0.5,0.5-0.5h1.875c0.276,0,0.5,0.224,0.5,0.5S61.651,25,61.375,25z M70.5,21h-5 c-0.276,0-0.5-0.224-0.5-0.5s0.224-0.5,0.5-0.5h5c0.276,0,0.5,0.224,0.5,0.5S70.777,21,70.5,21z M67.5,27h-2 c-0.276,0-0.5-0.224-0.5-0.5s0.224-0.5,0.5-0.5h2c0.276,0,0.5,0.224,0.5,0.5S67.776,27,67.5,27z"></path><path fill="#fdfcef" d="M39,33h5.75c2.485,0.75,4.5-1.265,4.5-3.75c0-2.333-1.782-4.229-4.055-4.455 c0.022-0.181,0.055-0.358,0.055-0.545c0-2.485-2.015-4.5-4.5-4.5c-1.438,0-2.703,0.686-3.527,1.736 c-0.14-2.636-2.302-4.736-4.973-4.736c-2.761,0-5,2.239-5,5c0,0.446,0.077,0.87,0.187,1.282c-0.642-0.777-1.6-1.282-2.687-1.282 c-1.781,0-3.234,1.335-3.455,3.055c-0.181-0.022-0.358-0.055-0.545-0.055c-2.485,0-4.5,2.015-4.5,4.5s2.015,4.5,4.5,3.75h9.5H36v1 h3V33z"></path><path fill="#472b29" d="M32.5,16c-3.033,0-5.5,2.467-5.5,5.5c0,0.016,0,0.031,0,0.047C26.398,21.192,25.71,21,25,21 c-1.831,0-3.411,1.261-3.858,3.005C21.095,24.002,21.048,24,21,24c-3.099,0-5.549,2.834-4.893,6.047 C16.587,32.398,18.796,34,21.196,34h14.679c0.276,0,0.5-0.224,0.5-0.5s-0.224-0.5-0.5-0.5H21.157c-1.92,0-3.687-1.282-4.071-3.163 C16.561,27.267,18.521,25,21,25c0.117,0,0.23,0.017,0.343,0.032l0.141,0.019c0.021,0.003,0.041,0.004,0.062,0.004 c0.246,0,0.462-0.185,0.495-0.437C22.232,23.125,23.504,22,25,22c0.885,0,1.723,0.401,2.301,1.1 c0.098,0.118,0.241,0.182,0.386,0.182c0.078,0,0.156-0.018,0.228-0.056c0.209-0.107,0.314-0.346,0.254-0.573 c-0.16-0.6-0.202-1.069-0.147-1.549c0.24-2.127,1.959-3.909,4.092-4.088c2.551-0.215,4.725,1.728,4.859,4.246 c0.011,0.208,0.15,0.387,0.349,0.45c0.05,0.016,0.101,0.024,0.152,0.024c0.15,0,0.296-0.069,0.392-0.192 C38.638,20.563,39.779,20,41,20c2.206,0,4,1.794,4,4c0,0.117-0.017,0.23-0.032,0.343l-0.019,0.141 c-0.016,0.134,0.022,0.268,0.106,0.373s0.207,0.172,0.34,0.185c2.352,0.234,4.042,2.429,3.504,4.865 C48.491,31.76,46.725,33,44.827,33h-5.952c-0.276,0-0.5,0.224-0.5,0.5s0.224,0.5,0.5,0.5h5.938c2.467,0,4.708-1.704,5.115-4.138 c0.462-2.763-1.344-5.22-3.931-5.74C45.999,24.082,46,24.041,46,24c0-2.757-2.243-5-5-5c-1.176,0-2.293,0.416-3.183,1.164 C37.219,17.76,35.055,16,32.5,16L32.5,16z"></path><path fill="#472b29" d="M30.75,23.25c-1.403,0-2.609,0.999-2.913,2.341c-0.367-0.222-0.786-0.341-1.212-0.341 c-1.202,0-2.198,0.897-2.353,2.068c-0.203-0.045-0.396-0.068-0.585-0.068c-1.529,0-2.811,1.2-2.918,2.732 c-0.009,0.138,0.094,0.257,0.232,0.267c0.006,0,0.012,0,0.018,0c0.13,0,0.24-0.101,0.249-0.232 c0.089-1.271,1.151-2.268,2.419-2.268c0.229,0,0.47,0.042,0.738,0.127c0.022,0.007,0.045,0.01,0.067,0.01 c0.055,0,0.11-0.02,0.156-0.054c0.064-0.047,0.102-0.129,0.102-0.209c0-1.034,0.841-1.875,1.875-1.875 c0.447,0,0.885,0.168,1.231,0.473c0.047,0.041,0.106,0.063,0.165,0.063c0.032,0,0.063-0.006,0.093-0.019 c0.088-0.035,0.148-0.117,0.155-0.212c0.102-1.292,1.191-2.305,2.479-2.305c0.208,0,0.425,0.034,0.682,0.107 c0.023,0.007,0.047,0.01,0.07,0.01c0.109,0,0.207-0.073,0.239-0.182c0.038-0.133-0.039-0.271-0.172-0.309 C31.267,23.29,31.006,23.25,30.75,23.25L30.75,23.25z M44.876,24.499c-1.326,0-2.508,0.897-2.874,2.182 c-0.038,0.133,0.039,0.271,0.172,0.309C42.197,26.997,42.22,27,42.242,27c0.109,0,0.209-0.072,0.24-0.182 C42.787,25.747,43.771,25,44.875,25c0.117,0,0.23,0.014,0.342,0.029c0.012,0.002,0.023,0.003,0.035,0.003 c0.121,0,0.229-0.092,0.246-0.217c0.019-0.137-0.077-0.263-0.214-0.281C45.151,24.515,45.015,24.499,44.876,24.499L44.876,24.499z"></path><g><path fill="#fdfcef" d="M84.5,79.5c0,0,1.567,0,3.5,0s3.5-1.567,3.5-3.5c0-1.781-1.335-3.234-3.055-3.455 C88.473,72.366,88.5,72.187,88.5,72c0-1.933-1.567-3.5-3.5-3.5c-1.032,0-1.95,0.455-2.59,1.165 c-0.384-1.808-1.987-3.165-3.91-3.165c-2.209,0-4,1.791-4,4c0,0.191,0.03,0.374,0.056,0.558C74.128,70.714,73.592,70.5,73,70.5 c-1.228,0-2.245,0.887-2.455,2.055C70.366,72.527,70.187,72.5,70,72.5c-1.933,0-3.5,1.567-3.5,3.5s1.567,3.5,3.5,3.5s7.5,0,7.5,0 V80h7V79.5z"></path><path fill="#472b29" d="M86.25,75C86.112,75,86,74.888,86,74.75c0-1.223,0.995-2.218,2.218-2.218 c0.034,0.009,0.737-0.001,1.244,0.136c0.133,0.036,0.212,0.173,0.176,0.306c-0.036,0.134-0.173,0.213-0.306,0.176 c-0.444-0.12-1.1-0.12-1.113-0.118c-0.948,0-1.719,0.771-1.719,1.718C86.5,74.888,86.388,75,86.25,75z M79.5,79 c-0.276,0-0.5,0.224-0.5,0.5s0.224,0.5,0.5,0.5s0.5-0.224,0.5-0.5S79.776,79,79.5,79z"></path><path fill="#472b29" d="M88,80h-3.5c-0.276,0-0.5-0.224-0.5-0.5s0.224-0.5,0.5-0.5H88c1.654,0,3-1.346,3-3 c0-1.496-1.125-2.768-2.618-2.959c-0.134-0.018-0.255-0.088-0.336-0.196s-0.115-0.244-0.094-0.377C87.975,72.314,88,72.16,88,72 c0-1.654-1.346-3-3-3c-0.85,0-1.638,0.355-2.219,1c-0.125,0.139-0.321,0.198-0.5,0.148c-0.182-0.049-0.321-0.195-0.36-0.379 C81.58,68.165,80.141,67,78.5,67c-1.93,0-3.5,1.57-3.5,3.5c0,0.143,0.021,0.28,0.041,0.418c0.029,0.203-0.063,0.438-0.242,0.54 c-0.179,0.102-0.396,0.118-0.556-0.01C73.878,71.155,73.449,71,73,71c-0.966,0-1.792,0.691-1.963,1.644 c-0.048,0.267-0.296,0.446-0.569,0.405C70.314,73.025,70.16,73,70,73c-1.654,0-3,1.346-3,3s1.346,3,3,3h7.5 c0.276,0,0.5,0.224,0.5,0.5S77.776,80,77.5,80H70c-2.206,0-4-1.794-4-4s1.794-4,4-4c0.059,0,0.116,0.002,0.174,0.006 C70.588,70.82,71.711,70,73,70c0.349,0,0.689,0.061,1.011,0.18C74.176,67.847,76.126,66,78.5,66c1.831,0,3.466,1.127,4.153,2.774 C83.333,68.276,84.155,68,85,68c2.206,0,4,1.794,4,4c0,0.048-0.001,0.095-0.004,0.142C90.739,72.59,92,74.169,92,76 C92,78.206,90.206,80,88,80z"></path><path fill="#472b29" d="M82.5,79c-0.159,0-0.841,0-1,0c-0.276,0-0.5,0.224-0.5,0.5s0.224,0.5,0.5,0.5c0.159,0,0.841,0,1,0 c0.276,0,0.5-0.224,0.5-0.5S82.776,79,82.5,79z"></path></g><g><path fill="#5a5c70" d="M35.375,42.731l-2.6,6.266l-1.168-0.59c-0.829-0.414-1.356-1.243-1.394-2.16l-0.201-6.367 c-0.013-0.264,0.013-0.527,0.063-0.779c0.176-1.042,0.804-1.972,1.733-2.549l2.223-1.369l1.13,6.329L35.375,42.731z"></path><path fill="#5a5c70" d="M73.997,39.88l-0.201,6.367c-0.038,0.917-0.565,1.746-1.394,2.16l-1.168,0.59l-2.6-6.266 l0.213-1.218l1.13-6.329l2.223,1.369c0.929,0.578,1.557,1.507,1.733,2.549C73.984,39.352,74.009,39.616,73.997,39.88z"></path><path fill="#472b29" d="M32.775,49.697c-0.108,0-0.217-0.025-0.315-0.075l-1.168-0.59c-1.047-0.524-1.729-1.581-1.778-2.756 l-0.201-6.374c-0.014-0.293,0.011-0.612,0.076-0.938c0.207-1.223,0.955-2.326,2.05-3.008l2.226-1.369 c0.197-0.122,0.441-0.139,0.653-0.043c0.211,0.095,0.362,0.288,0.403,0.516l1.344,7.549c0.023,0.132,0.008,0.267-0.043,0.39 l-2.6,6.267c-0.075,0.18-0.221,0.32-0.403,0.388C32.94,49.683,32.857,49.697,32.775,49.697z M33.523,36.318l-1.347,0.829 c-0.752,0.468-1.267,1.224-1.41,2.07c-0.046,0.233-0.063,0.438-0.054,0.629l0.201,6.378c0.027,0.66,0.414,1.259,1.008,1.557 l0.497,0.251l2.232-5.382L33.523,36.318z"></path><path fill="#472b29" d="M71.234,49.697c-0.082,0-0.165-0.015-0.243-0.044c-0.183-0.067-0.329-0.208-0.403-0.388l-2.6-6.267 c-0.051-0.123-0.066-0.259-0.043-0.39l1.344-7.549c0.041-0.228,0.191-0.421,0.403-0.516c0.212-0.095,0.456-0.078,0.653,0.043 l2.223,1.368c1.099,0.683,1.847,1.786,2.057,3.029c0.06,0.3,0.085,0.617,0.072,0.922l-0.201,6.362 c-0.048,1.182-0.73,2.238-1.78,2.764l-1.166,0.589C71.451,49.672,71.342,49.697,71.234,49.697z M69.359,42.65l2.232,5.382 l0.495-0.25c0.597-0.299,0.983-0.897,1.01-1.563l0.2-6.361c0-0.004,0-0.008,0-0.011c0.009-0.192-0.007-0.396-0.05-0.607 c-0.146-0.868-0.661-1.623-1.416-2.093l-1.345-0.828L69.359,42.65z"></path><path fill="#605e60" d="M52,55.625c-8.844,0-16,2.604-16,8.4c0,4.2,8.727,12.6,16,12.6s16-8.4,16-12.6 C68,58.229,60.844,55.625,52,55.625z"></path><path fill="#7c8a9f" d="M71.92,61.395c-0.04,0.82-0.48,1.57-1.19,2.02c-2.68,1.64-8.46,4.22-13.6,5.47 c-1.24,0.31-2.45,0.54-3.56,0.64c-0.55,0.07-1.07,0.1-1.57,0.1s-1.02-0.03-1.57-0.1c-1.11-0.1-2.32-0.33-3.56-0.64 c-5.14-1.25-10.92-3.83-13.6-5.47c-0.5-0.32-0.87-0.78-1.05-1.31c-0.07-0.23-0.12-0.47-0.14-0.71c-0.19-3.85-0.05-9.58,0.41-15.73 c0.21-2.78,0.49-5.64,0.83-8.46c0-0.04,0.02-0.06,0.02-0.1c0.94-7.83,7.36-13.8,15.15-14.42c0.29-0.03,0.58-0.04,0.87-0.05 c0.16-0.01,0.32-0.01,0.49-0.01h4.3c0.17,0,0.33,0,0.49,0.01c0.29,0.01,0.58,0.02,0.87,0.05c7.79,0.62,14.21,6.59,15.15,14.42 c0,0.04,0.02,0.06,0.02,0.1c0.34,2.82,0.62,5.68,0.83,8.46C71.97,51.815,72.11,57.545,71.92,61.395z"></path><path fill="#8e9cb3" d="M46.867,68.888c-5.133-1.258-10.918-3.836-13.593-5.475c-0.499-0.318-0.87-0.775-1.05-1.308 c0.333-3.519,1.972-7.265,4.276-8.98C45.46,51.22,49.76,67.084,46.867,68.888z"></path><path fill="#8e9cb3" d="M57.133,68.888c5.133-1.258,10.918-3.836,13.593-5.475c0.499-0.318,0.87-0.775,1.05-1.308 c-0.333-3.519-1.972-7.265-4.276-8.98C58.54,51.22,54.24,67.084,57.133,68.888z"></path><path fill="#8e9cb3" d="M57,42.945H47l1.49-20.26c0.29-0.03,0.58-0.04,0.87-0.05c0.16-0.01,0.32-0.01,0.49-0.01h4.3 c0.17,0,0.33,0,0.49,0.01c0.29,0.01,0.58,0.02,0.87,0.05L57,42.945z"></path><path fill="#472b29" d="M57,43.195H47c-0.069,0-0.136-0.029-0.183-0.08s-0.071-0.119-0.066-0.188l1.49-20.261 c0.009-0.121,0.104-0.218,0.225-0.23c0.295-0.029,0.59-0.041,0.886-0.051c0.158-0.01,0.323-0.01,0.499-0.01h4.3 c0.175,0,0.34,0,0.505,0.01c0.289,0.01,0.584,0.021,0.879,0.051c0.121,0.013,0.215,0.109,0.225,0.23l0.106,1.44 c0.01,0.138-0.093,0.258-0.231,0.268c-0.142,0.017-0.258-0.093-0.268-0.23l-0.09-1.229c-0.214-0.016-0.429-0.023-0.644-0.03 c-0.162-0.011-0.317-0.013-0.482-0.01h-4.3c-0.172-0.001-0.32-0.001-0.475,0.01c-0.22,0.007-0.436,0.015-0.651,0.03l-1.455,19.78 h9.462l-0.868-11.802c-0.01-0.138,0.093-0.258,0.231-0.268c0.13-0.022,0.258,0.093,0.268,0.23l0.888,12.07 c0.005,0.069-0.019,0.138-0.066,0.188S57.069,43.195,57,43.195z"></path><path fill="#472b29" d="M56.001,29.625c-0.129,0-0.239-0.101-0.249-0.231l-0.239-3.25c-0.01-0.138,0.093-0.258,0.231-0.268 c0.134-0.023,0.258,0.094,0.268,0.23l0.239,3.25c0.01,0.138-0.093,0.258-0.231,0.268C56.014,29.625,56.008,29.625,56.001,29.625z"></path><path fill="#472b29" d="M46.867,69.139c-0.02,0-0.04-0.002-0.06-0.007c-4.879-1.196-10.779-3.738-13.664-5.506 c-0.553-0.351-0.962-0.862-1.156-1.442c-0.011-0.033-0.015-0.067-0.012-0.103c0.359-3.797,2.118-7.477,4.375-9.156 c0.029-0.021,0.062-0.037,0.097-0.044c6.206-1.324,9.445,5.419,10.292,7.517c1.375,3.406,1.865,7.702,0.26,8.703 C46.959,69.126,46.914,69.139,46.867,69.139z M32.478,62.074c0.165,0.451,0.493,0.851,0.93,1.128 c2.827,1.731,8.599,4.222,13.409,5.417c1.102-0.866,0.864-4.553-0.541-8.035c-0.807-1.999-3.884-8.415-9.67-7.226 C34.486,54.967,32.834,58.454,32.478,62.074z"></path><path fill="#472b29" d="M57.133,69.139c-0.046,0-0.092-0.013-0.132-0.038c-1.605-1.001-1.115-5.297,0.26-8.703 c0.846-2.097,4.084-8.838,10.292-7.517c0.035,0.007,0.068,0.022,0.097,0.044c2.258,1.68,4.016,5.359,4.375,9.156 c0.003,0.035-0.001,0.069-0.012,0.103c-0.194,0.58-0.604,1.092-1.152,1.44c-2.889,1.77-8.789,4.312-13.668,5.508 C57.173,69.137,57.153,69.139,57.133,69.139z M66,53.213c-4.89,0-7.536,5.539-8.275,7.371c-1.405,3.482-1.643,7.169-0.541,8.035 c4.81-1.195,10.582-3.686,13.413-5.419c0.433-0.275,0.762-0.675,0.926-1.126c-0.356-3.62-2.008-7.107-4.127-8.716 C66.911,53.259,66.446,53.213,66,53.213z"></path><path fill="#5a5c70" d="M32.493,45.668c1.587,1.092,4.007,3.646,4.007,7.457c3.84,0,10.367,7.608,10.367,15.763 C48.48,62.956,48.8,45.668,32.493,45.668z"></path><path fill="#5a5c70" d="M71.507,45.668C69.92,46.76,67.5,49.314,67.5,53.125c-3.84,0-10.367,7.608-10.367,15.763 C55.52,62.956,55.2,45.668,71.507,45.668z"></path><path fill="#472b29" d="M46.867,69.139c-0.011,0-0.022-0.001-0.033-0.002c-0.124-0.017-0.217-0.123-0.217-0.248 c0-8-6.312-15.514-10.117-15.514c-0.138,0-0.25-0.112-0.25-0.25c0-3.368-2.014-5.954-3.898-7.251 c-0.09-0.062-0.129-0.176-0.097-0.28c0.033-0.104,0.129-0.176,0.239-0.176c5.225,0,9.214,1.752,11.855,5.206 c4.191,5.482,3.947,13.966,2.76,18.33C47.079,69.064,46.979,69.139,46.867,69.139z M47.117,68.889h0.006H47.117z M36.747,52.885 c3.705,0.282,9.405,6.785,10.261,14.146c0.729-4.451,0.472-11.486-3.057-16.103c-2.412-3.155-6.008-4.834-10.695-4.997 C34.997,47.369,36.664,49.805,36.747,52.885z"></path><path fill="#472b29" d="M57.133,69.139c-0.111,0-0.211-0.074-0.241-0.185c-1.187-4.364-1.431-12.848,2.76-18.33 c2.641-3.454,6.63-5.206,11.855-5.206c0.109,0,0.206,0.071,0.239,0.176c0.032,0.104-0.007,0.218-0.097,0.28 c-1.885,1.297-3.898,3.883-3.898,7.251c0,0.138-0.112,0.25-0.25,0.25c-3.806,0-10.117,7.514-10.117,15.514 c0,0.125-0.093,0.231-0.217,0.248C57.155,69.138,57.144,69.139,57.133,69.139z M70.745,45.931 c-4.688,0.163-8.283,1.842-10.695,4.997c-3.529,4.616-3.787,11.651-3.057,16.103c0.856-7.36,6.557-13.863,10.261-14.146 C67.336,49.805,69.003,47.369,70.745,45.931z"></path><path fill="#a2b3cb" d="M70.675,37.208c-5.798,3.277-14.95,4.471-18.675,4.471s-12.877-1.194-18.675-4.471 c-0.346,2.82-0.627,5.678-0.832,8.46c8.294,1.715,14.169,10.175,14.374,23.221c1.242,0.305,2.458,0.533,3.558,0.635 c0.55,0.076,1.075,0.102,1.574,0.102s1.024-0.025,1.574-0.102c1.101-0.102,2.317-0.33,3.558-0.635 c0.205-13.046,6.08-21.506,14.374-23.221C71.302,42.886,71.021,40.028,70.675,37.208z"></path><path fill="#3b3634" d="M34.72,40.409l0.73,2.553c0.346,1.181,1.254,2.134,2.432,2.541l0.038,0.013l2.56,0.889l1.28,0.445 l3.11,1.08c0.256,0.089,0.499,0.191,0.73,0.305c1.984,0.991,3.354,2.947,3.533,5.195L50.4,69.307l0.026,0.216 c0.55,0.076,1.075,0.102,1.574,0.102s1.024-0.025,1.574-0.102l0.026-0.216l1.267-15.878c0.205-2.515,1.882-4.662,4.262-5.5 l6.989-2.426c1.178-0.406,2.086-1.359,2.432-2.541l0.73-2.553C60.96,44.22,54.56,44.22,52,44.22c-1.267,0-3.482,0-6.4-0.47 c-1.178-0.178-2.458-0.445-3.84-0.813c-0.422-0.102-0.845-0.216-1.28-0.356c-0.819-0.241-1.677-0.521-2.56-0.851 C36.896,41.349,35.821,40.917,34.72,40.409z"></path><path fill="#a2b3cb" d="M53.63,22.625v14c0,0.9-0.73,1.62-1.63,1.62s-1.62-0.72-1.62-1.62v-14H53.63z"></path><path fill="#472b29" d="M52,77.325c-7.077,0-15.063-7.269-16.466-11.897c-1.03-0.506-1.933-0.993-2.625-1.418 c-0.646-0.41-1.121-1.005-1.348-1.683c-0.102-0.302-0.161-0.604-0.176-0.896c-0.197-3.947-0.047-9.71,0.411-15.815 c0.205-2.785,0.486-5.644,0.835-8.492c0.002-0.018,0.011-0.086,0.015-0.104c1.013-8.359,8.193-14.844,16.699-15.082 c0.133-0.012,0.319-0.013,0.506-0.013h4.301c0.187,0,0.373,0.001,0.544,0.016c8.468,0.235,15.647,6.72,16.663,15.082 c0.01,0.056,0.018,0.115,0.018,0.186c0.344,2.764,0.625,5.621,0.83,8.407l0,0c0.458,6.105,0.607,11.868,0.411,15.813 c-0.049,1.054-0.617,2.02-1.521,2.579c-0.695,0.427-1.599,0.914-2.628,1.42C67.063,70.057,59.077,77.325,52,77.325z M49.79,23.325 c-0.127,0-0.252,0-0.369,0.01c-7.857,0.221-14.456,6.177-15.388,13.855c-0.002,0.019-0.011,0.087-0.015,0.104 c-0.345,2.825-0.624,5.66-0.827,8.425c-0.454,6.05-0.603,11.75-0.409,15.639c0.009,0.165,0.044,0.342,0.105,0.523 c0.127,0.38,0.391,0.705,0.762,0.94c0.708,0.434,1.673,0.949,2.78,1.485c0.189,0.091,0.327,0.262,0.376,0.466 C37.818,68.968,45.553,75.925,52,75.925s14.182-6.957,15.194-11.151c0.049-0.204,0.187-0.375,0.376-0.466 c1.107-0.536,2.072-1.052,2.79-1.491c0.516-0.319,0.829-0.851,0.857-1.455c0.194-3.892,0.045-9.592-0.409-15.641 c0-0.001,0-0.001,0-0.001c-0.203-2.765-0.482-5.6-0.829-8.427c-0.01-0.057-0.018-0.116-0.018-0.187 c-0.927-7.595-7.526-13.551-15.345-13.769c-0.173-0.015-0.321-0.012-0.467-0.013H49.85C49.83,23.325,49.81,23.325,49.79,23.325z"></path><path fill="#472b29" d="M62.38,51.875c-0.108,0-0.218-0.035-0.31-0.107c-0.217-0.172-0.253-0.486-0.082-0.702 c0.958-1.212,2.038-2.273,3.212-3.153c0.222-0.166,0.535-0.119,0.7,0.101c0.166,0.221,0.121,0.534-0.1,0.7 c-1.104,0.828-2.123,1.828-3.027,2.972C62.674,51.81,62.528,51.875,62.38,51.875z"></path><path fill="#472b29" d="M52,69.875c-0.587,0-1.124-0.034-1.642-0.105c-1.039-0.095-2.261-0.312-3.609-0.641 c-0.221-0.054-0.377-0.25-0.381-0.478c-0.192-12.187-5.547-20.83-13.975-22.559c-0.246-0.051-0.417-0.276-0.398-0.527 c0.202-2.721,0.495-5.667,0.847-8.521c0.021-0.165,0.122-0.31,0.271-0.385c0.148-0.075,0.326-0.069,0.47,0.01 c5.578,3.129,14.568,3.955,18.542,3.955c3.888,0,12.715-0.826,18.292-3.955c0.146-0.079,0.322-0.085,0.47-0.01 c0.149,0.075,0.25,0.22,0.271,0.385c0.353,2.854,0.646,5.8,0.847,8.521c0.019,0.251-0.152,0.477-0.398,0.527 c-1.401,0.287-2.745,0.776-3.994,1.455c-0.242,0.132-0.546,0.042-0.678-0.201c-0.132-0.242-0.042-0.546,0.201-0.678 c1.207-0.655,2.497-1.146,3.839-1.462c-0.181-2.352-0.428-4.857-0.722-7.315c-5.768,2.942-14.298,3.733-18.129,3.733 c-3.915,0-12.6-0.791-18.379-3.733c-0.293,2.458-0.541,4.964-0.722,7.315c8.573,2.006,14.031,10.768,14.335,23.04 c1.152,0.267,2.198,0.445,3.112,0.529c0.989,0.135,2.089,0.132,3.035,0.003c0.934-0.087,1.981-0.265,3.134-0.532 c0.15-6.044,1.559-11.357,4.083-15.388c0.148-0.233,0.456-0.304,0.689-0.158c0.234,0.146,0.305,0.455,0.158,0.689 c-2.481,3.961-3.844,9.238-3.939,15.261c-0.004,0.228-0.161,0.424-0.381,0.478c-1.349,0.329-2.57,0.546-3.631,0.644 C53.124,69.841,52.587,69.875,52,69.875z"></path><path fill="#472b29" d="M52,69.875c-0.586,0-1.121-0.035-1.635-0.106c-1.027-0.094-2.242-0.31-3.59-0.641 c-3.367-0.825-7.478-2.345-10.995-4.066c-0.248-0.121-0.351-0.421-0.229-0.669c0.122-0.248,0.421-0.349,0.669-0.229 c3.457,1.692,7.492,3.185,10.794,3.994c1.299,0.318,2.465,0.526,3.466,0.618c0.982,0.137,2.081,0.134,3.017,0.003 c1.024-0.095,2.19-0.303,3.489-0.621c3.302-0.81,7.337-2.302,10.794-3.994c0.248-0.12,0.547-0.019,0.669,0.229 c0.121,0.248,0.019,0.548-0.229,0.669c-3.518,1.722-7.628,3.241-10.995,4.066c-1.348,0.331-2.563,0.547-3.613,0.644 C53.121,69.84,52.586,69.875,52,69.875z"></path><path fill="#472b29" d="M52,69.879c-0.518,0-1.035-0.036-1.605-0.107c-0.114-0.015-0.203-0.104-0.217-0.219l-0.026-0.216 l-1.268-15.889c-0.186-2.376-1.831-4.499-4.095-5.283l-3.11-1.08c-0.401-0.141-1.115-0.388-1.842-0.64 c-0.772-0.267-1.559-0.539-1.999-0.693c-1.27-0.423-2.253-1.439-2.627-2.72l-0.73-2.555c-0.027-0.093,0.003-0.193,0.076-0.257 s0.177-0.08,0.265-0.04c8.053,3.56,14.696,3.944,17.179,3.944c3.908,0,10.06-0.685,17.176-3.943 c0.088-0.038,0.193-0.026,0.267,0.038c0.074,0.063,0.104,0.164,0.077,0.258l-0.729,2.553c-0.37,1.264-1.338,2.275-2.591,2.709 l-6.988,2.426c-2.292,0.808-3.899,2.882-4.095,5.284l-1.294,16.104c-0.014,0.114-0.103,0.204-0.217,0.219 C53.035,69.843,52.518,69.879,52,69.879z M50.65,69.299c0.946,0.105,1.753,0.105,2.699,0l0.002-0.021l1.266-15.869 c0.211-2.6,1.95-4.843,4.428-5.716l6.99-2.427c1.101-0.38,1.95-1.269,2.274-2.375l0.581-2.033 C61.902,43.964,55.867,44.625,52,44.625c-2.464,0-8.974-0.373-16.894-3.774l0.583,2.043c0.328,1.121,1.191,2.013,2.309,2.385 c0.444,0.155,1.229,0.428,2.001,0.694c0.728,0.252,1.442,0.5,1.843,0.64l3.11,1.08c2.449,0.849,4.229,3.146,4.429,5.717 L50.65,69.299z"></path><path fill="#472b29" d="M52,38.625c-1.098,0-1.99-0.844-1.99-1.88v-14.12c0-0.138,0.112-0.25,0.25-0.25h3.49 c0.138,0,0.25,0.112,0.25,0.25v14.12C54,37.781,53.103,38.625,52,38.625z M50.51,22.875v13.87c0,0.761,0.668,1.38,1.49,1.38 c0.827,0,1.5-0.619,1.5-1.38v-13.87H50.51z"></path></g>
</svg>